<svg xmlns="http://www.w3.org/2000/svg" viewBox="0 0 32 32"><title>barcode</title><g id="barcode"><rect width="32" height="32" style="fill:none"/><path d="M2,1A1,1,0,0,0,1,2V30a1,1,0,0,0,2,0V2A1,1,0,0,0,2,1Z" style="fill:#364f6b"/><rect x="5" y="1" width="6" height="28" rx="1" ry="1" style="fill:#364f6b"/><path d="M14,1a1,1,0,0,0-1,1V28a1,1,0,0,0,2,0V2A1,1,0,0,0,14,1Z" style="fill:#364f6b"/><rect x="17" y="1" width="6" height="28" rx="1" ry="1" style="fill:#364f6b"/><rect x="25" y="1" width="6" height="30" rx="1" ry="1" style="fill:#364f6b"/></g></svg>