<svg xmlns="http://www.w3.org/2000/svg" viewBox="0 0 32 32"><title>briefcase</title><g id="briefcase"><rect width="32" height="32" style="fill:none"/><path d="M30,9H24V6a3.0033,3.0033,0,0,0-3-3H11A3.0033,3.0033,0,0,0,8,6V9H2a1,1,0,0,0-1,1v1A10.0111,10.0111,0,0,0,11,21H21A10.0114,10.0114,0,0,0,31,11V10A1,1,0,0,0,30,9ZM10,9V6a1.0013,1.0013,0,0,1,1-1H21a1.0009,1.0009,0,0,1,1,1V9Z" style="fill:#364f6b"/><path d="M21,23H11A11.9951,11.9951,0,0,1,1,17.6187V26a3.0033,3.0033,0,0,0,3,3H28a3.0033,3.0033,0,0,0,3-3V17.6189A11.9946,11.9946,0,0,1,21,23Z" style="fill:#364f6b"/></g></svg>