<svg xmlns="http://www.w3.org/2000/svg" viewBox="0 0 32 32"><title>businesswoman</title><g id="businesswoman"><rect width="32" height="32" style="fill:none"/><path d="M9.8452,18.1035a7.9513,7.9513,0,0,1-1.062-8.5342A.9989.9989,0,0,1,9.6855,9h12.629a.9989.9989,0,0,1,.9023.5693,7.9512,7.9512,0,0,1-1.062,8.5341A17.9576,17.9576,0,0,1,28,21.61V13A12,12,0,0,0,4,13v8.6106A17.9577,17.9577,0,0,1,9.8452,18.1035Z" style="fill:#364f6b"/><path d="M30.9545,29.7031A15.4216,15.4216,0,0,0,20.4489,19.6445a7.9867,7.9867,0,0,1-1.9578.9486l-1.3734,4.578a1.168,1.168,0,0,1-2.2354,0l-1.3734-4.578a7.9867,7.9867,0,0,1-1.9578-.9486A15.4216,15.4216,0,0,0,1.0455,29.7031,1.0007,1.0007,0,0,0,2.0005,31H30A1.0007,1.0007,0,0,0,30.9545,29.7031Z" style="fill:#364f6b"/></g></svg>