<svg xmlns="http://www.w3.org/2000/svg" viewBox="0 0 32 32"><title>business to consumer</title><g id="business_to_consumer" data-name="business to consumer"><rect width="32" height="32" style="fill:none"/><path d="M5.5005,9H3a1,1,0,0,0,0,2H4v1a1,1,0,0,0,2,0V10.95A2.5,2.5,0,0,0,5.5,6h-1a.5.5,0,0,1,0-1H7A1,1,0,0,0,7,3H6V2A1,1,0,0,0,4,2V3.0505A2.5,2.5,0,0,0,4.5,8h1a.5.5,0,0,1,0,1Z" style="fill:#364f6b"/><path d="M18,25H7a1.0009,1.0009,0,0,1-1-1V18.4141L7.293,19.707a1,1,0,0,0,1.414-1.414L5.7077,15.2936,5.707,15.293a1.0021,1.0021,0,0,0-1.414,0l-.0007.0006L1.293,18.293a1,1,0,0,0,1.414,1.414L4,18.4141V24a3.0033,3.0033,0,0,0,3,3H18a1,1,0,0,0,0-2Z" style="fill:#364f6b"/><path d="M11,9H24a1.0006,1.0006,0,0,1,1,1v5.5859L23.707,14.293a1,1,0,0,0-1.414,1.414l2.9987,2.9987.0013.0013a1.0024,1.0024,0,0,0,1.414,0l.0013-.0013L29.707,15.707a1,1,0,0,0-1.414-1.414L27,15.5859V10a3.0033,3.0033,0,0,0-3-3H11a1,1,0,0,0,0,2Z" style="fill:#364f6b"/><path d="M28.48,25.6847a3,3,0,1,0-4.96,0A4.9838,4.9838,0,0,0,21,30a1,1,0,0,0,1,1h8a1,1,0,0,0,1-1A4.9838,4.9838,0,0,0,28.48,25.6847Z" style="fill:#364f6b"/></g></svg>