<svg xmlns="http://www.w3.org/2000/svg" viewBox="0 0 32 32"><title>business to business</title><g id="business_to_business" data-name="business to business"><rect width="32" height="32" style="fill:none"/><path d="M5.5005,9H3a1,1,0,0,0,0,2H4v1a1,1,0,0,0,2,0V10.95A2.5,2.5,0,0,0,5.5,6h-1a.5.5,0,0,1,0-1H7A1,1,0,0,0,7,3H6V2A1,1,0,0,0,4,2V3.0505A2.5,2.5,0,0,0,4.5,8h1a.5.5,0,0,1,0,1Z" style="fill:#364f6b"/><path d="M22,24H7a1.0009,1.0009,0,0,1-1-1V18.4141L7.293,19.707a1,1,0,0,0,1.414-1.414l-3-3a.9994.9994,0,0,0-1.414,0l-3,3a1,1,0,0,0,1.414,1.414L4,18.4141V23a3.0033,3.0033,0,0,0,3,3H22a1,1,0,0,0,0-2Z" style="fill:#364f6b"/><path d="M26.5,23H29a1,1,0,0,0,0-2H28V20a1,1,0,0,0-2,0v1.05A2.5,2.5,0,0,0,26.5,26h1a.5.5,0,0,1,0,1H25a1,1,0,0,0,0,2h1v1a1,1,0,0,0,2,0V28.95A2.5,2.5,0,0,0,27.5,24h-1a.5.5,0,0,1,0-1Z" style="fill:#364f6b"/><path d="M30.707,12.293a.9994.9994,0,0,0-1.414,0L28,13.5859V9a3.0033,3.0033,0,0,0-3-3H10a1,1,0,0,0,0,2H25a1.0009,1.0009,0,0,1,1,1v4.5859L24.707,12.293a1,1,0,0,0-1.414,1.414l3,3a1,1,0,0,0,1.414,0l3-3A.9994.9994,0,0,0,30.707,12.293Z" style="fill:#364f6b"/></g></svg>