<svg xmlns="http://www.w3.org/2000/svg" viewBox="0 0 32 32"><title>businessman</title><g id="businessman"><rect width="32" height="32" style="fill:none"/><circle cx="16" cy="9" r="8" style="fill:#364f6b"/><path d="M22.5586,16.5306a10.0474,10.0474,0,0,1-3.2432,1.8916l.6807,7.4875a1.0009,1.0009,0,0,1-.2891.7973l-3,3a.9994.9994,0,0,1-1.414,0l-3-3a1,1,0,0,1-.2891-.7973l.6807-7.4873a10.05,10.05,0,0,1-3.2432-1.8917A15.0034,15.0034,0,0,0,1,30a1,1,0,0,0,1,1H30a1,1,0,0,0,1-1A15.003,15.003,0,0,0,22.5586,16.5306Z" style="fill:#364f6b"/></g></svg>