<svg xmlns="http://www.w3.org/2000/svg" viewBox="0 0 32 32"><title>business law</title><g id="business_law" data-name="business law"><rect width="32" height="32" style="fill:none"/><path d="M16.5,6h-1a.5.5,0,0,1,0-1H18a1,1,0,0,0,0-2H17V2a1,1,0,0,0-2,0V3.0505A2.5,2.5,0,0,0,15.5,8h1a.5.5,0,0,1,.001,1H14a1,1,0,0,0,0,2h1v1a1,1,0,0,0,2,0V10.95A2.5,2.5,0,0,0,16.5,6Z" style="fill:#364f6b"/><path d="M18,29H17V14h7.127l-1.993,3h2.4035L26,14.7985,27.4625,17H29.866l-1.993-3H28a1,1,0,0,0,0-2H4a1,1,0,0,0,0,2h.127L2.134,17H4.5375L6,14.7985,7.4625,17H9.866L7.873,14H15V29H14a1,1,0,0,0,0,2h4a1,1,0,0,0,0-2Z" style="fill:#364f6b"/><path d="M21,19a5,5,0,0,0,10,0Z" style="fill:#364f6b"/><path d="M11,19A5,5,0,0,1,1,19Z" style="fill:#364f6b"/></g></svg>