<svg xmlns="http://www.w3.org/2000/svg" viewBox="0 0 32 32"><title>business strategy</title><g id="business_strategy" data-name="business strategy"><rect width="32" height="32" style="fill:none"/><path d="M3.293,8.707a1,1,0,0,0,1.414,0L7,6.4141,9.293,8.707a1,1,0,0,0,1.414-1.414L8.4141,5,10.707,2.707A1,1,0,0,0,9.293,1.293L7,3.5859,4.707,1.293A1,1,0,0,0,3.293,2.707L5.5859,5,3.293,7.293A.9994.9994,0,0,0,3.293,8.707Z" style="fill:#364f6b"/><path d="M28.707,23.293a.9994.9994,0,0,0-1.414,0L25,25.5859,22.707,23.293a1,1,0,0,0-1.414,1.414L23.5859,27,21.293,29.293a1,1,0,0,0,1.414,1.414L25,28.4141l2.293,2.2929a1,1,0,0,0,1.414-1.414L26.4141,27l2.2929-2.293A.9994.9994,0,0,0,28.707,23.293Z" style="fill:#364f6b"/><path d="M22.707,5.707,24,4.4141V14a1.0009,1.0009,0,0,1-1,1H9a3.0033,3.0033,0,0,0-3,3v2a1,1,0,0,0,2,0V18a1.0013,1.0013,0,0,1,1-1H23a3.0033,3.0033,0,0,0,3-3V4.4141L27.293,5.707a1,1,0,0,0,1.414-1.414L25.7079,1.2938,25.707,1.293a1.0021,1.0021,0,0,0-1.414,0l-.0009.0008L21.293,4.293a1,1,0,0,0,1.414,1.414Z" style="fill:#364f6b"/><circle cx="7" cy="27" r="4" style="fill:#364f6b"/></g></svg>