<svg xmlns="http://www.w3.org/2000/svg" viewBox="0 0 32 32"><title>business plan</title><g id="business_plan" data-name="business plan"><rect width="32" height="32" style="fill:none"/><rect x="19" y="19" width="6" height="6" style="fill:#364f6b"/><path d="M17,14V7H7V25H17V18a1,1,0,0,1,1-1h7V15H18A1,1,0,0,1,17,14Zm-5.5,1h1a2.5,2.5,0,0,1,.5,4.9494V21a1,1,0,0,1-2,0V20H10a1,1,0,0,1,0-2h2.501a.5.5,0,0,0-.001-1h-1a2.5,2.5,0,0,1-.5-4.9494V11a1,1,0,0,1,2,0v1h1a1,1,0,0,1,0,2H11.5a.5.5,0,0,0,0,1Z" style="fill:#364f6b"/><path d="M30,1H2A1,1,0,0,0,1,2V30a1,1,0,0,0,1,1H30a1,1,0,0,0,1-1V2A1,1,0,0,0,30,1ZM27,26a1,1,0,0,1-1,1H6a1,1,0,0,1-1-1V6A1,1,0,0,1,6,5H22a1,1,0,0,1,0,2H19v6h6V10a1,1,0,0,1,2,0Z" style="fill:#364f6b"/></g></svg>