<svg xmlns="http://www.w3.org/2000/svg" viewBox="0 0 32 32"><title>business growth</title><g id="business_growth" data-name="business growth"><rect width="32" height="32" style="fill:none"/><path d="M30,29H3V2A1,1,0,0,0,1,2V30a1,1,0,0,0,1,1H30a1,1,0,0,0,0-2Z" style="fill:#364f6b"/><path d="M6.707,21.707,8,20.4141V27h2V20.4141l1.293,1.2929a1,1,0,0,0,1.414-1.414l-3-3a1.0038,1.0038,0,0,0-1.4146,0l-3,3a1,1,0,0,0,1.414,1.414Z" style="fill:#364f6b"/><path d="M15.707,13.707,17,12.4141V27h2V12.4141l1.293,1.2929a1,1,0,0,0,1.414-1.414l-3-3a1.0038,1.0038,0,0,0-1.4146,0l-3,3a1,1,0,0,0,1.414,1.414Z" style="fill:#364f6b"/><path d="M24.707,5.707,26,4.4141V27h2V4.4141L29.293,5.707a1,1,0,0,0,1.414-1.414l-3-3a1.0038,1.0038,0,0,0-1.4146,0l-3,3a1,1,0,0,0,1.414,1.414Z" style="fill:#364f6b"/></g></svg>