<svg xmlns="http://www.w3.org/2000/svg" viewBox="0 0 32 32"><title>business performance</title><g id="business_performance" data-name="business performance"><rect width="32" height="32" style="fill:none"/><path d="M30,29H3V2A1,1,0,0,0,1,2V30a1,1,0,0,0,1,1H30a1,1,0,0,0,0-2Z" style="fill:#364f6b"/><path d="M8,19a.9967.9967,0,0,0,.707-.293L23,4.4141V6a1,1,0,0,0,2,0V2a1.0041,1.0041,0,0,0-1-1H20a1,1,0,0,0,0,2h1.5859L7.293,17.293A1,1,0,0,0,8,19Z" style="fill:#364f6b"/><path d="M21,10V27h6V10a1,1,0,0,0-1-1H22A1,1,0,0,0,21,10Z" style="fill:#364f6b"/><path d="M14,17a1,1,0,0,0-1,1v9h6V18a1,1,0,0,0-1-1Z" style="fill:#364f6b"/><path d="M11,22a1,1,0,0,0-1-1H6a1,1,0,0,0-1,1v5h6Z" style="fill:#364f6b"/></g></svg>