<svg xmlns="http://www.w3.org/2000/svg" viewBox="0 0 32 32"><title>business note</title><g id="business_note" data-name="business note"><rect width="32" height="32" style="fill:none"/><path d="M29,4V5a3,3,0,0,1-6,0V4H19V5a3,3,0,0,1-6,0V4H9V5A3,3,0,0,1,3,5V4A2.002,2.002,0,0,0,1,6V28a2.002,2.002,0,0,0,2,2H29a2.002,2.002,0,0,0,2-2V6A2.002,2.002,0,0,0,29,4ZM24.707,14.707l-12,12A1,1,0,0,1,12,27H8a1,1,0,0,1-1-1V22a1,1,0,0,1,.293-.707l12-12a.9994.9994,0,0,1,1.414,0l4,4A.9994.9994,0,0,1,24.707,14.707Z" style="fill:#364f6b"/><path d="M6,6A1,1,0,0,1,5,5V1A1,1,0,0,1,7,1V5A1,1,0,0,1,6,6Z" style="fill:#364f6b"/><path d="M16,6a1,1,0,0,1-1-1V1a1,1,0,0,1,2,0V5A1,1,0,0,1,16,6Z" style="fill:#364f6b"/><path d="M26,6a1,1,0,0,1-1-1V1a1,1,0,0,1,2,0V5A1,1,0,0,1,26,6Z" style="fill:#364f6b"/></g></svg>