<svg xmlns="http://www.w3.org/2000/svg" viewBox="0 0 32 32"><title>calculator</title><g id="calculator"><rect width="32" height="32" style="fill:none"/><path d="M28,1H17V15H31V4A3,3,0,0,0,28,1ZM26,9H22a1,1,0,0,1,0-2h4a1,1,0,0,1,0,2Z" style="fill:#364f6b"/><path d="M17,17V31H28a3,3,0,0,0,3-3V17Zm9,10H22a1,1,0,0,1,0-2h4a1,1,0,0,1,0,2Zm0-4H22a1,1,0,0,1,0-2h4a1,1,0,0,1,0,2Z" style="fill:#364f6b"/><path d="M4,1A3,3,0,0,0,1,4V15H15V1Zm6,8H9v1a1,1,0,0,1-2,0V9H6A1,1,0,0,1,6,7H7V6A1,1,0,0,1,9,6V7h1a1,1,0,0,1,0,2Z" style="fill:#364f6b"/><path d="M1,17V28a3,3,0,0,0,3,3H15V17Zm9.707,8.293a1,1,0,0,1-1.414,1.414L8,25.4141,6.707,26.707a1,1,0,0,1-1.414-1.414L6.5859,24,5.293,22.707a1,1,0,0,1,1.414-1.414L8,22.5859,9.293,21.293a1,1,0,0,1,1.414,1.414L9.4141,24Z" style="fill:#364f6b"/></g></svg>