<svg xmlns="http://www.w3.org/2000/svg" viewBox="0 0 32 32"><title>cheque</title><g id="cheque"><rect width="32" height="32" style="fill:none"/><path d="M30,6H2A1,1,0,0,0,1,7V25a1,1,0,0,0,1,1H30a1,1,0,0,0,1-1V7A1,1,0,0,0,30,6ZM8.5,15h1a2.5,2.5,0,0,1,.5,4.9494V21a1,1,0,0,1-2,0V20H7a1,1,0,0,1,0-2H9.501A.5.5,0,0,0,9.5,17h-1A2.5,2.5,0,0,1,8,12.0506V11a1,1,0,0,1,2,0v1h1a1,1,0,0,1,0,2H8.5a.5.5,0,0,0,0,1ZM25,20H17a1,1,0,0,1,0-2h8a1,1,0,0,1,0,2Zm0-6H17a1,1,0,0,1,0-2h8a1,1,0,0,1,0,2Z" style="fill:#364f6b"/></g></svg>