<svg xmlns="http://www.w3.org/2000/svg" viewBox="0 0 32 32"><title>coins</title><g id="coins"><rect width="32" height="32" style="fill:none"/><path d="M27,27H23a1,1,0,0,0,1-1V24a1,1,0,0,0-1-1H5a1,1,0,0,0-1,1v2a1,1,0,0,0,1,1H9a1,1,0,0,0-1,1v2a1,1,0,0,0,1,1H27a1,1,0,0,0,1-1V28A1,1,0,0,0,27,27Z" style="fill:#364f6b"/><circle cx="16" cy="11.9873" r="5" style="fill:#364f6b"/><path d="M23.0627,3.5165A10.9958,10.9958,0,0,0,17.0046,1V5.0479a6.9853,6.9853,0,0,1,3.1937,1.3328Z" style="fill:#364f6b"/><path d="M22.9522,10.9954H27A10.9962,10.9962,0,0,0,24.4833,4.937L21.619,7.8012A6.9843,6.9843,0,0,1,22.9522,10.9954Z" style="fill:#364f6b"/><path d="M10.3807,16.1987a6.9845,6.9845,0,0,1-1.3329-3.1941H5a10.9959,10.9959,0,0,0,2.5166,6.0582Z" style="fill:#364f6b"/><path d="M11.8013,17.6193,8.9372,20.4834A10.9959,10.9959,0,0,0,14.9954,23V18.9522A6.9845,6.9845,0,0,1,11.8013,17.6193Z" style="fill:#364f6b"/><path d="M14.9954,5.0478V1A10.9959,10.9959,0,0,0,8.9372,3.5166l2.8641,2.8641A6.9845,6.9845,0,0,1,14.9954,5.0478Z" style="fill:#364f6b"/><path d="M10.3807,7.8013,7.5166,4.9372A10.9959,10.9959,0,0,0,5,10.9954H9.0478A6.9845,6.9845,0,0,1,10.3807,7.8013Z" style="fill:#364f6b"/><path d="M21.619,16.1988l2.8643,2.8642A10.9969,10.9969,0,0,0,27,13.0046H22.9522A6.9843,6.9843,0,0,1,21.619,16.1988Z" style="fill:#364f6b"/><path d="M20.1983,17.6193a6.9853,6.9853,0,0,1-3.1937,1.3328V23a10.9965,10.9965,0,0,0,6.0581-2.5165Z" style="fill:#364f6b"/></g></svg>