<svg xmlns="http://www.w3.org/2000/svg" viewBox="0 0 32 32"><title>coin</title><g id="coin"><rect width="32" height="32" style="fill:none"/><circle cx="16" cy="16" r="8" style="fill:#364f6b"/><path d="M25.886,4.6951A14.9661,14.9661,0,0,0,17.0034,1V6.0169a9.9826,9.9826,0,0,1,5.3392,2.2217Z" style="fill:#364f6b"/><path d="M27.3049,6.114,23.7614,9.6574a9.9826,9.9826,0,0,1,2.2217,5.3392H31A14.9661,14.9661,0,0,0,27.3049,6.114Z" style="fill:#364f6b"/><path d="M6.114,4.6951A14.9661,14.9661,0,0,1,14.9966,1V6.0169A9.9826,9.9826,0,0,0,9.6574,8.2386Z" style="fill:#364f6b"/><path d="M4.6951,6.114,8.2386,9.6574a9.9826,9.9826,0,0,0-2.2217,5.3392H1A14.9661,14.9661,0,0,1,4.6951,6.114Z" style="fill:#364f6b"/><path d="M25.886,27.3049A14.9661,14.9661,0,0,1,17.0034,31V25.9831a9.9826,9.9826,0,0,0,5.3392-2.2217Z" style="fill:#364f6b"/><path d="M27.3049,25.886l-3.5435-3.5434a9.9826,9.9826,0,0,0,2.2217-5.3392H31A14.9661,14.9661,0,0,1,27.3049,25.886Z" style="fill:#364f6b"/><path d="M6.114,27.3049A14.9661,14.9661,0,0,0,14.9966,31V25.9831a9.9826,9.9826,0,0,1-5.3392-2.2217Z" style="fill:#364f6b"/><path d="M4.6951,25.886l3.5435-3.5434a9.9826,9.9826,0,0,1-2.2217-5.3392H1A14.9661,14.9661,0,0,0,4.6951,25.886Z" style="fill:#364f6b"/></g></svg>