<svg xmlns="http://www.w3.org/2000/svg" viewBox="0 0 32 32"><title>contract</title><g id="contract"><rect width="32" height="32" style="fill:none"/><path d="M26,1H6A1,1,0,0,0,5,2V30a1,1,0,0,0,1,1H26a1,1,0,0,0,1-1V2A1,1,0,0,0,26,1ZM12,6h8a1,1,0,0,1,0,2H12a1,1,0,0,1,0-2ZM22.707,22.707l-4,4A1,1,0,0,1,17,26V24.4141L14.707,26.707A1.0005,1.0005,0,0,1,13,26V24.4141L10.707,26.707a1,1,0,0,1-1.414-1.414l4-4A1.0007,1.0007,0,0,1,15,22v1.5859l2.293-2.2929A1.0007,1.0007,0,0,1,19,22v1.5859l2.293-2.2929a1,1,0,0,1,1.414,1.414ZM22,18H10a1,1,0,0,1,0-2H22a1,1,0,0,1,0,2Zm0-5H10a1,1,0,0,1,0-2H22a1,1,0,0,1,0,2Z" style="fill:#364f6b"/></g></svg>