<svg xmlns="http://www.w3.org/2000/svg" viewBox="0 0 32 32"><title>credit card alt</title><g id="credit_card_alt" data-name="credit card alt"><rect width="32" height="32" style="fill:none"/><path d="M29,6H3A2.0023,2.0023,0,0,0,1,8V24a2.0023,2.0023,0,0,0,2,2H29a2.0023,2.0023,0,0,0,2-2V8A2.0023,2.0023,0,0,0,29,6ZM8,22H6a1,1,0,0,1,0-2H8a1,1,0,0,1,0,2Zm2-6H6a1,1,0,0,1-1-1V11a1,1,0,0,1,1-1h4a1,1,0,0,1,1,1v4A1,1,0,0,1,10,16Zm4,6H12a1,1,0,0,1,0-2h2a1,1,0,0,1,0,2Zm6,0H18a1,1,0,0,1,0-2h2a1,1,0,0,1,0,2Zm6,0H24a1,1,0,0,1,0-2h2a1,1,0,0,1,0,2Zm0-8H15a1,1,0,0,1,0-2H26a1,1,0,0,1,0,2Z" style="fill:#364f6b"/></g></svg>