<svg xmlns="http://www.w3.org/2000/svg" viewBox="0 0 32 32"><title>customer service</title><g id="customer_service" data-name="customer service"><rect width="32" height="32" style="fill:none"/><path d="M25,10.1084V8a7.0085,7.0085,0,0,0-7-7H14A7.0085,7.0085,0,0,0,7,8v2.1084A4.994,4.994,0,0,0,8.5037,19.97a8.9875,8.9875,0,0,0,14.9926,0A4.994,4.994,0,0,0,25,10.1084ZM16,6A8.983,8.983,0,0,0,9,9.3553V8a5.0059,5.0059,0,0,1,5-5h4a5.0059,5.0059,0,0,1,5,5V9.3553A8.983,8.983,0,0,0,16,6Z" style="fill:#364f6b"/><path d="M23,23.4626V24a3.0033,3.0033,0,0,1-3,3H18.8157a3,3,0,1,0,0,2H20a5.0059,5.0059,0,0,0,5-5V22h-.5246A10.9241,10.9241,0,0,1,23,23.4626Z" style="fill:#364f6b"/></g></svg>