<svg xmlns="http://www.w3.org/2000/svg" viewBox="0 0 32 32"><title>deal</title><g id="deal"><rect width="32" height="32" style="fill:none"/><path d="M24,21.9994a5,5,0,1,0-8,3.9744V29.999a1.0005,1.0005,0,0,0,1.5547.8319L19,29.8672l1.4453.9637A1,1,0,0,0,22,29.999V25.9738A4.9785,4.9785,0,0,0,24,21.9994Z" style="fill:#364f6b"/><path d="M27,1H5A1,1,0,0,0,4,2V28a1,1,0,0,0,1,1h9V26.8892a7,7,0,1,1,10,0V29h3a1,1,0,0,0,1-1V2A1,1,0,0,0,27,1ZM22,12H10a1,1,0,0,1,0-2H22a1,1,0,0,1,0,2Zm0-5H10a1,1,0,0,1,0-2H22a1,1,0,0,1,0,2Z" style="fill:#364f6b"/></g></svg>