<svg xmlns="http://www.w3.org/2000/svg" viewBox="0 0 32 32"><title>delivery</title><g id="delivery"><rect width="32" height="32" style="fill:none"/><path d="M4,15a1,1,0,0,0,0,2H7V15Z" style="fill:#364f6b"/><path d="M2,11a1,1,0,0,0,0,2H7V11Z" style="fill:#364f6b"/><path d="M29,4H9A2.002,2.002,0,0,0,7,6v5h3a1,1,0,0,1,0,2H7v2h3a1,1,0,0,1,0,2H7v9a2.002,2.002,0,0,0,2,2H29a2.002,2.002,0,0,0,2-2V6A2.002,2.002,0,0,0,29,4ZM27,17a1,1,0,0,1-1.6.8L22,15.25,18.6,17.8A1.0007,1.0007,0,0,1,17,17V6H27Z" style="fill:#364f6b"/></g></svg>