<svg xmlns="http://www.w3.org/2000/svg" viewBox="0 0 32 32"><title>desk alt</title><g id="desk_alt" data-name="desk alt"><rect width="32" height="32" style="fill:none"/><rect x="21" y="17" width="6" height="8" style="fill:#364f6b"/><rect x="5" y="17" width="6" height="8" style="fill:#364f6b"/><path d="M30,7H2A1,1,0,0,0,2,9H5v6H15V9h2v6H27V9h3a1,1,0,0,0,0-2ZM10,13a1,1,0,1,1,1-1A1,1,0,0,1,10,13Zm12,0a1,1,0,1,1,1-1A1,1,0,0,1,22,13Z" style="fill:#364f6b"/><rect x="13" y="20" width="6" height="2" style="fill:#364f6b"/></g></svg>