<svg xmlns="http://www.w3.org/2000/svg" viewBox="0 0 32 32"><title>discount</title><g id="discount"><rect width="32" height="32" style="fill:none"/><circle cx="11" cy="11.9988" r="1" style="fill:#364f6b"/><circle cx="21" cy="19.9988" r="1" style="fill:#364f6b"/><path d="M28.5393,11.2159A8.45,8.45,0,0,1,26.235,7.0718c-1.5645-4.872-3.1671-5.6794-7.8-4.7155a8.6679,8.6679,0,0,1-4.8695,0c-4.6052-.9521-6.2249-.193-7.8,4.7165a8.4509,8.4509,0,0,1-2.3038,4.1421c-3.2582,3.7607-3.3047,5.7543,0,9.5668A8.4509,8.4509,0,0,1,5.765,24.9258c1.59,4.9507,3.2391,5.66,7.8,4.7155a8.6679,8.6679,0,0,1,4.87,0c4.5977.9506,6.2221.2018,7.8005-4.7164a8.4508,8.4508,0,0,1,2.3038-4.1422C31.797,17.022,31.8435,15.0285,28.5393,11.2159ZM8,11.9988a3,3,0,1,1,3,3A3.0033,3.0033,0,0,1,8,11.9988Zm2.707,10.7071a1,1,0,0,1-1.414-1.4141l12-12a1,1,0,0,1,1.414,1.4141ZM21,22.9988a3,3,0,1,1,3-3A3.0033,3.0033,0,0,1,21,22.9988Z" style="fill:#364f6b"/></g></svg>