<svg xmlns="http://www.w3.org/2000/svg" viewBox="0 0 32 32"><title>dollar paper</title><g id="dollar_paper" data-name="dollar paper"><rect width="32" height="32" style="fill:none"/><path d="M31,11V8a1,1,0,0,0-1-1H27C27,11.1854,29.4225,11,31,11Z" style="fill:#364f6b"/><path d="M31,19V13c-3.6193,0-6-1.4251-6-6H7c0,3.6193-1.4251,6-6,6v6c3.6193,0,6,1.4251,6,6H25C25,21.3807,26.4251,19,31,19ZM15.5,15h1a2.5,2.5,0,0,1,.5,4.9494V21a1,1,0,0,1-2,0V20H14a1,1,0,0,1,0-2h2.501a.5.5,0,0,0-.001-1h-1a2.5,2.5,0,0,1-.5-4.9494V11a1,1,0,0,1,2,0v1h1a1,1,0,0,1,0,2H15.5a.5.5,0,0,0,0,1Z" style="fill:#364f6b"/><path d="M1,21v3a1,1,0,0,0,1,1H5C5,20.8146,2.5775,21,1,21Z" style="fill:#364f6b"/><path d="M5,7H2A1,1,0,0,0,1,8v3C5.1854,11,5,8.5775,5,7Z" style="fill:#364f6b"/><path d="M27,25h3a1,1,0,0,0,1-1V21C26.8146,21,27,23.4225,27,25Z" style="fill:#364f6b"/></g></svg>