<svg xmlns="http://www.w3.org/2000/svg" viewBox="0 0 32 32"><title>dollar coin</title><g id="dollar_coin" data-name="dollar coin"><rect width="32" height="32" style="fill:none"/><path d="M16,6A10,10,0,1,0,26,16,10.0113,10.0113,0,0,0,16,6Zm-.5,9h1a2.5,2.5,0,0,1,.5,4.9494V21a1,1,0,0,1-2,0V20H14a1,1,0,0,1,0-2h2.501a.5.5,0,0,0-.001-1h-1a2.5,2.5,0,0,1-.5-4.9494V11a1,1,0,0,1,2,0v1h1a1,1,0,0,1,0,2H15.5a.5.5,0,0,0,0,1Z" style="fill:#364f6b"/><path d="M16,1A15,15,0,1,0,31,16,15.0167,15.0167,0,0,0,16,1Zm0,27A12,12,0,1,1,28,16,12.0136,12.0136,0,0,1,16,28Z" style="fill:#364f6b"/></g></svg>