<svg xmlns="http://www.w3.org/2000/svg" viewBox="0 0 32 32"><title>donation</title><g id="donation"><rect width="32" height="32" style="fill:none"/><path d="M30.5293,22.1531,25.2148,18.835a2.7843,2.7843,0,0,0-1.0771-.5l-5.6758-1.2609A2.9717,2.9717,0,0,0,16.18,22.4548l-2.3975.3427-7.2978-1.99A2.7581,2.7581,0,0,0,4.8154,26.06l8.1739,2.9716a2.7641,2.7641,0,0,0,1.2509.1493c8.81-.9788,5.41-1.397,15.459,1.7721A1.0008,1.0008,0,0,0,31,30V23.0011A.9993.9993,0,0,0,30.5293,22.1531Z" style="fill:#364f6b"/><path d="M7.8623,13.6662l5.6758,1.2611A3.018,3.018,0,0,0,14.1963,15a2.9546,2.9546,0,0,0,2.87-2.2531A2.9852,2.9852,0,0,0,15.82,9.5456l2.3975-.3427,7.2978,1.99A2.7583,2.7583,0,0,0,27.1846,5.94L19.0107,2.9683A2.798,2.798,0,0,0,17.76,2.8189c-8.8088.9788-5.4083,1.397-15.459-1.7723A1.001,1.001,0,0,0,1,2V8.9993a.9993.9993,0,0,0,.4707.848l5.3145,3.3184A2.783,2.783,0,0,0,7.8623,13.6662Z" style="fill:#364f6b"/></g></svg>