<svg xmlns="http://www.w3.org/2000/svg" viewBox="0 0 32 32"><title>fax</title><g id="fax"><rect width="32" height="32" style="fill:none"/><path d="M9,5A4.0042,4.0042,0,0,0,5,9V27a4,4,0,0,0,8,0V9A4.0042,4.0042,0,0,0,9,5Z" style="fill:#364f6b"/><path d="M3,27V9a5.9667,5.9667,0,0,1,.3188-1.9149A3,3,0,0,0,1,10V26a3,3,0,0,0,2.3188,2.9149A5.9672,5.9672,0,0,1,3,27Z" style="fill:#364f6b"/><path d="M28,5V4a3.0033,3.0033,0,0,0-3-3H21a3.0033,3.0033,0,0,0-3,3V5Z" style="fill:#364f6b"/><path d="M29,7H14.65A5.9609,5.9609,0,0,1,15,9V27a5.9609,5.9609,0,0,1-.35,2H29a2.0023,2.0023,0,0,0,2-2V9A2.0023,2.0023,0,0,0,29,7ZM19,24a1,1,0,1,1,1-1A1,1,0,0,1,19,24Zm0-5a1,1,0,1,1,1-1A1,1,0,0,1,19,19Zm0-5a1,1,0,1,1,1-1A1,1,0,0,1,19,14Zm4,10a1,1,0,1,1,1-1A1,1,0,0,1,23,24Zm0-5a1,1,0,1,1,1-1A1,1,0,0,1,23,19Zm0-5a1,1,0,1,1,1-1A1,1,0,0,1,23,14Zm4,10a1,1,0,1,1,1-1A1,1,0,0,1,27,24Zm0-5a1,1,0,1,1,1-1A1,1,0,0,1,27,19Zm0-5a1,1,0,1,1,1-1A1,1,0,0,1,27,14Z" style="fill:#364f6b"/></g></svg>