<svg xmlns="http://www.w3.org/2000/svg" viewBox="0 0 32 32"><title>file storage</title><g id="file_storage" data-name="file storage"><rect width="32" height="32" style="fill:none"/><path d="M28,5H14.4141L12.707,3.293A.9993.9993,0,0,0,12,3H8A3.0033,3.0033,0,0,0,5,6V7H4a3.0033,3.0033,0,0,0-3,3V26a3.0033,3.0033,0,0,0,3,3H24a3.0033,3.0033,0,0,0,3-3V25h1a3.0033,3.0033,0,0,0,3-3V8A3.0033,3.0033,0,0,0,28,5Zm1,17a1.0009,1.0009,0,0,1-1,1H27V12a3.0033,3.0033,0,0,0-3-3H10.4141L8.707,7.293A.9993.9993,0,0,0,8,7H7V6A1.0009,1.0009,0,0,1,8,5h3.5859L13.293,6.707A.9993.9993,0,0,0,14,7H28a1.0009,1.0009,0,0,1,1,1Z" style="fill:#364f6b"/></g></svg>