<svg xmlns="http://www.w3.org/2000/svg" viewBox="0 0 32 32"><title>folder open</title><g id="folder_open" data-name="folder open"><rect width="32" height="32" style="fill:none"/><path d="M30,10H6a1,1,0,0,0-.97.7578l-4,16A1.0006,1.0006,0,0,0,2,28H26a1,1,0,0,0,.97-.7578l4-16A1.0006,1.0006,0,0,0,30,10Z" style="fill:#364f6b"/><path d="M3.09,10.2725A2.9963,2.9963,0,0,1,6.0005,8H26.8157A2.995,2.995,0,0,0,24,6H10.4141L8.707,4.293A1,1,0,0,0,8,4H4A3.0033,3.0033,0,0,0,1,7V18.6318Z" style="fill:#364f6b"/></g></svg>