<svg xmlns="http://www.w3.org/2000/svg" viewBox="0 0 32 32"><title>folder open alt</title><g id="folder_open_alt" data-name="folder open alt"><rect width="32" height="32" style="fill:none"/><path d="M3.09,10.2725A2.9963,2.9963,0,0,1,6.0005,8H26.22A2.9819,2.9819,0,0,0,24,7H17V5a1,1,0,0,0-1-1H6A1,1,0,0,0,5,5V7H4a3.0033,3.0033,0,0,0-3,3v8.6316Z" style="fill:#364f6b"/><path d="M30,10H6a1,1,0,0,0-.97.7578l-4,16A1.0006,1.0006,0,0,0,2,28H26a1,1,0,0,0,.97-.7578l4-16A1,1,0,0,0,30,10Z" style="fill:#364f6b"/></g></svg>