<svg xmlns="http://www.w3.org/2000/svg" viewBox="0 0 32 32"><title>form</title><g id="form"><rect width="32" height="32" style="fill:none"/><rect x="11" y="9" width="2" height="2" style="fill:#364f6b"/><rect x="15" y="13" width="6" height="10" style="fill:#364f6b"/><rect x="11" y="13" width="2" height="10" style="fill:#364f6b"/><rect x="15" y="9" width="6" height="2" style="fill:#364f6b"/><path d="M26,1H6A1,1,0,0,0,5,2V30a1,1,0,0,0,1,1H26a1,1,0,0,0,1-1V2A1,1,0,0,0,26,1ZM23,24a1,1,0,0,1-1,1H10a1,1,0,0,1-1-1V8a1,1,0,0,1,1-1H22a1,1,0,0,1,1,1Z" style="fill:#364f6b"/></g></svg>