<svg xmlns="http://www.w3.org/2000/svg" viewBox="0 0 32 32"><title>glass hour</title><g id="glass_hour" data-name="glass hour"><rect width="32" height="32" style="fill:none"/><path d="M4,3H5.0176a14.9077,14.9077,0,0,0,8.28,13,14.8745,14.8745,0,0,0-6.3361,6H25.0389a14.8748,14.8748,0,0,0-6.336-6A14.9078,14.9078,0,0,0,26.9824,3H28a1,1,0,0,0,0-2H4A1,1,0,0,0,4,3Z" style="fill:#364f6b"/><path d="M28,29H26.9824a15.1369,15.1369,0,0,0-.9949-5H6.0125a15.1369,15.1369,0,0,0-.9949,5H4a1,1,0,0,0,0,2H28a1,1,0,0,0,0-2Z" style="fill:#364f6b"/></g></svg>