<svg xmlns="http://www.w3.org/2000/svg" viewBox="0 0 32 32"><title>goal</title><g id="goal"><rect width="32" height="32" style="fill:none"/><path d="M14,9h5a1.0013,1.0013,0,0,0,.8946-1.4473L19.1183,6l.7764-1.5527A1.0013,1.0013,0,0,0,19,3H13a1,1,0,0,0-1,1v7.6641L1.1776,27.4313A1.002,1.002,0,0,0,2.0016,29H25.8994L14,11.6641Z" style="fill:#364f6b"/><path d="M30.8224,27.4313,19.824,11.4078a1.0365,1.0365,0,0,0-1.6482,0l-.9628,1.4027L28.3254,29h1.673A1.002,1.002,0,0,0,30.8224,27.4313Z" style="fill:#364f6b"/></g></svg>