<svg xmlns="http://www.w3.org/2000/svg" viewBox="0 0 32 32"><title>human to human</title><g id="human_to_human" data-name="human to human"><rect width="32" height="32" style="fill:none"/><path d="M18,24H8a1.0006,1.0006,0,0,1-1-1V16.4141L8.293,17.707a1,1,0,0,0,1.414-1.414l-3-3a.9994.9994,0,0,0-1.414,0l-3,3a1,1,0,0,0,1.414,1.414L5,16.4141V23a3.0033,3.0033,0,0,0,3,3H18a1,1,0,0,0,0-2Z" style="fill:#364f6b"/><path d="M14,8H24a1.0006,1.0006,0,0,1,1,1v6.5859L23.707,14.293a1,1,0,0,0-1.414,1.414l3,3a1,1,0,0,0,1.414,0l3-3a1,1,0,0,0-1.414-1.414L27,15.5859V9a3.0033,3.0033,0,0,0-3-3H14a1,1,0,0,0,0,2Z" style="fill:#364f6b"/><path d="M28.48,25.6847a3,3,0,1,0-4.96,0A4.9838,4.9838,0,0,0,21,30a1,1,0,0,0,1,1h8a1,1,0,0,0,1-1A4.9838,4.9838,0,0,0,28.48,25.6847Z" style="fill:#364f6b"/><path d="M10,11a1,1,0,0,0,1-1A4.9838,4.9838,0,0,0,8.48,5.6847a3,3,0,1,0-4.96,0A4.9838,4.9838,0,0,0,1,10a1,1,0,0,0,1,1Z" style="fill:#364f6b"/></g></svg>