<svg xmlns="http://www.w3.org/2000/svg" viewBox="0 0 32 32"><title>id card</title><g id="id_card" data-name="id card"><rect width="32" height="32" style="fill:none"/><path d="M29,7H19a1,1,0,0,0,0-2H13a1,1,0,0,0,0,2H3A2.0023,2.0023,0,0,0,1,9V25a2.0023,2.0023,0,0,0,2,2H29a2.0023,2.0023,0,0,0,2-2V9A2.0023,2.0023,0,0,0,29,7ZM13,22H5a1,1,0,0,1-1-1,4.9838,4.9838,0,0,1,2.52-4.3153,3,3,0,1,1,4.96,0A4.9838,4.9838,0,0,1,14,21,1,1,0,0,1,13,22Zm13-1H18a1,1,0,0,1,0-2h8a1,1,0,0,1,0,2Zm0-6H18a1,1,0,0,1,0-2h8a1,1,0,0,1,0,2Z" style="fill:#364f6b"/></g></svg>