<svg xmlns="http://www.w3.org/2000/svg" viewBox="0 0 32 32"><title>infographic</title><g id="infographic"><rect width="32" height="32" style="fill:none"/><path d="M26,1H6A1,1,0,0,0,5,2V30a1,1,0,0,0,1,1H26a1,1,0,0,0,1-1V2A1,1,0,0,0,26,1ZM12.4648,5.4648a4.9957,4.9957,0,0,1,7.07,0,1,1,0,0,1,0,1.4141L17.4141,9l2.1211,2.1211a1,1,0,0,1,0,1.4141,5,5,0,0,1-7.07-7.07ZM13,27a1,1,0,0,1-2,0V23a1,1,0,0,1,2,0Zm4,0a1,1,0,0,1-2,0V21a1,1,0,0,1,2,0Zm4,0a1,1,0,0,1-2,0V19a1,1,0,0,1,2,0Z" style="fill:#364f6b"/></g></svg>