<svg xmlns="http://www.w3.org/2000/svg" viewBox="0 0 32 32"><title>internet banking</title><g id="internet_banking" data-name="internet banking"><rect width="32" height="32" style="fill:none"/><path d="M1,24a3.0033,3.0033,0,0,0,3,3h7.7192L11.03,29.7578A1.0005,1.0005,0,0,0,12,31h8a1.0005,1.0005,0,0,0,.97-1.2422L20.2808,27H28a3.0033,3.0033,0,0,0,3-3V23H1Z" style="fill:#364f6b"/><path d="M28,3H4A3,3,0,0,0,1,6V21H31V6A3,3,0,0,0,28,3ZM15.5,11h1a2.5,2.5,0,0,1,.5,4.95V17a1,1,0,0,1-2,0V16H14a1,1,0,0,1,0-2h2.5a.5.5,0,0,0,0-1h-1A2.5,2.5,0,0,1,15,8.0505V7a1,1,0,0,1,2,0V8h1a1,1,0,0,1,0,2H15.5a.5.5,0,0,0,0,1Z" style="fill:#364f6b"/></g></svg>