<svg xmlns="http://www.w3.org/2000/svg" viewBox="0 0 32 32"><title>investment</title><g id="investment"><rect width="32" height="32" style="fill:none"/><path d="M27,13H17V10.95A2.5,2.5,0,0,0,16.5,6h-1a.5.5,0,0,1,0-1H18a1,1,0,0,0,0-2H17V2a1,1,0,0,0-2,0V3.0505A2.5,2.5,0,0,0,15.5,8h1a.5.5,0,0,1,.001,1H14a1,1,0,0,0,0,2h1v2H5a2.0027,2.0027,0,0,0-2,2v2a2.0027,2.0027,0,0,0,2,2H27a2.0027,2.0027,0,0,0,2-2V15A2.0027,2.0027,0,0,0,27,13Z" style="fill:#364f6b"/><path d="M7.0137,30.1641A.9994.9994,0,0,0,8,31H24a.9994.9994,0,0,0,.9863-.8359L26.5137,21H5.4863Z" style="fill:#364f6b"/></g></svg>