<svg xmlns="http://www.w3.org/2000/svg" viewBox="0 0 32 32"><title>invoice</title><g id="invoice"><rect width="32" height="32" style="fill:none"/><rect x="11" y="21" width="10" height="4" style="fill:#364f6b"/><path d="M26,1H6A1,1,0,0,0,5,2V30a1,1,0,0,0,1,1H26a1,1,0,0,0,1-1V2A1,1,0,0,0,26,1ZM16.5,11h-1A2.5,2.5,0,0,1,15,6.0505V5a1,1,0,0,1,2,0V6h1a1,1,0,0,1,0,2H15.5a.5.5,0,0,0,0,1h1a2.5,2.5,0,0,1,.5,4.95V15a1,1,0,0,1-2,0V14H14a1,1,0,0,1,0-2h2.5a.5.5,0,0,0,0-1ZM23,26a1,1,0,0,1-1,1H10a1,1,0,0,1-1-1V20a1,1,0,0,1,1-1H22a1,1,0,0,1,1,1Z" style="fill:#364f6b"/></g></svg>