<svg xmlns="http://www.w3.org/2000/svg" viewBox="0 0 32 32"><title>leader</title><g id="leader"><rect width="32" height="32" style="fill:none"/><circle cx="16" cy="6" r="5" style="fill:#364f6b"/><path d="M29,25.1843V21a1,1,0,0,0-1-1H17V19H15v1H4a1,1,0,0,0-1,1v4.1843a3,3,0,1,0,2,0V22H15v3.1843a3,3,0,1,0,2,0V22H27v3.1843a3,3,0,1,0,2,0Z" style="fill:#364f6b"/><path d="M10,17H22a1,1,0,0,0,1-1,6.976,6.976,0,0,0-2.11-5,6.9768,6.9768,0,0,1-9.779,0A6.976,6.976,0,0,0,9,16,1,1,0,0,0,10,17Z" style="fill:#364f6b"/></g></svg>