<svg xmlns="http://www.w3.org/2000/svg" viewBox="0 0 32 32"><title>mastercard</title><g id="mastercard"><rect width="32" height="32" style="fill:none"/><path d="M29,6H3A2.002,2.002,0,0,0,1,8V24a2.002,2.002,0,0,0,2,2H29a2.002,2.002,0,0,0,2-2V8A2.002,2.002,0,0,0,29,6ZM10,22a1,1,0,0,1-1,1H5a1,1,0,0,1-1-1V18a1,1,0,0,1,1-1H9a1,1,0,0,1,1,1Zm14-4a3.9533,3.9533,0,0,1-2-.5565A3.9533,3.9533,0,0,1,20,18a4,4,0,0,1,0-8,3.9533,3.9533,0,0,1,2,.5565A3.9533,3.9533,0,0,1,24,10a4,4,0,0,1,0,8Z" style="fill:#364f6b"/></g></svg>