<svg xmlns="http://www.w3.org/2000/svg" viewBox="0 0 32 32"><title>membership card</title><g id="membership_card" data-name="membership card"><rect width="32" height="32" style="fill:none"/><path d="M29,7H19a1,1,0,0,0,0-2H13a1,1,0,0,0,0,2H3A2.002,2.002,0,0,0,1,9V25a2.002,2.002,0,0,0,2,2H29a2.002,2.002,0,0,0,2-2V9A2.002,2.002,0,0,0,29,7ZM13,22H5a1,1,0,0,1-1-1,4.9838,4.9838,0,0,1,2.52-4.3153,3,3,0,1,1,4.96,0A4.9838,4.9838,0,0,1,14,21,1,1,0,0,1,13,22Zm13.707-6.293-4,4a.9994.9994,0,0,1-1.414,0l-2-2a1,1,0,0,1,1.414-1.414L22,17.5859l3.293-3.2929a1,1,0,0,1,1.414,1.414Z" style="fill:#364f6b"/></g></svg>