<svg xmlns="http://www.w3.org/2000/svg" viewBox="0 0 32 32"><title>mobile banking</title><g id="mobile_banking" data-name="mobile banking"><rect width="32" height="32" style="fill:none"/><path d="M23,1H9A2.0027,2.0027,0,0,0,7,3V29a2.0027,2.0027,0,0,0,2,2H23a2.0027,2.0027,0,0,0,2-2V3A2.0027,2.0027,0,0,0,23,1ZM20.4141,3,18.707,4.707A.9993.9993,0,0,1,18,5H14a.9993.9993,0,0,1-.707-.293L11.5859,3ZM15.5,17h1a2.5,2.5,0,0,1,.5,4.95V23a1,1,0,0,1-2,0V22H14a1,1,0,0,1,0-2h2.501a.5.5,0,0,0-.001-1h-1a2.5,2.5,0,0,1-.5-4.9495V13a1,1,0,0,1,2,0v1h1a1,1,0,0,1,0,2H15.5a.5.5,0,0,0,0,1Z" style="fill:#364f6b"/></g></svg>