<svg xmlns="http://www.w3.org/2000/svg" viewBox="0 0 32 32"><title>network</title><g id="network"><rect width="32" height="32" style="fill:none"/><path d="M30.442,20a14.6159,14.6159,0,0,0,0-8H23.856a55.6709,55.6709,0,0,1,0,8Z" style="fill:#364f6b"/><path d="M8.144,12H1.558a14.6159,14.6159,0,0,0,0,8H8.144A55.6709,55.6709,0,0,1,8.144,12Z" style="fill:#364f6b"/><path d="M10.3219,22a34.6591,34.6591,0,0,0,1.9148,8.5029,14.495,14.495,0,0,0,7.5266,0A34.66,34.66,0,0,0,21.6781,22Z" style="fill:#364f6b"/><path d="M21.86,12H10.14a57.279,57.279,0,0,0,0,8H21.86A57.279,57.279,0,0,0,21.86,12Z" style="fill:#364f6b"/><path d="M21.6781,10a34.66,34.66,0,0,0-1.9148-8.503,14.495,14.495,0,0,0-7.5266,0A34.6591,34.6591,0,0,0,10.3219,10Z" style="fill:#364f6b"/><path d="M23.6754,10H29.739a15.0759,15.0759,0,0,0-7.5784-7.6616A41.2479,41.2479,0,0,1,23.6754,10Z" style="fill:#364f6b"/><path d="M23.6754,22a41.2467,41.2467,0,0,1-1.5148,7.6615A15.0753,15.0753,0,0,0,29.739,22Z" style="fill:#364f6b"/><path d="M8.3246,22H2.2611a15.0764,15.0764,0,0,0,7.5783,7.6614A41.2375,41.2375,0,0,1,8.3246,22Z" style="fill:#364f6b"/><path d="M8.3246,10A41.2358,41.2358,0,0,1,9.8394,2.3386,15.076,15.076,0,0,0,2.2611,10Z" style="fill:#364f6b"/></g></svg>