<svg xmlns="http://www.w3.org/2000/svg" viewBox="0 0 32 32"><title>office</title><g id="office"><rect width="32" height="32" style="fill:none"/><path d="M1.8584,7.0105A1,1,0,0,0,1,8V31H4V24a1,1,0,0,1,1-1H9a1,1,0,0,1,1,1v7h3V5.4188ZM5,20H4a1,1,0,0,1,0-2H5a1,1,0,0,1,0,2Zm0-5H4a1,1,0,0,1,0-2H5a1,1,0,0,1,0,2Zm5,5H9a1,1,0,0,1,0-2h1a1,1,0,0,1,0,2Zm0-5H9a1,1,0,0,1,0-2h1a1,1,0,0,1,0,2Z" style="fill:#264560"/><path d="M29.8584,1.0105l-14,2A1,1,0,0,0,15,4V31h5V24a1,1,0,0,1,1-1h4a1,1,0,0,1,1,1v7h5V2A1,1,0,0,0,29.8584,1.0105ZM21,20H19a1,1,0,0,1,0-2h2a1,1,0,0,1,0,2Zm0-5H19a1,1,0,0,1,0-2h2a1,1,0,0,1,0,2Zm0-5H19a1,1,0,0,1,0-2h2a1,1,0,0,1,0,2Zm6,10H25a1,1,0,0,1,0-2h2a1,1,0,0,1,0,2Zm0-5H25a1,1,0,0,1,0-2h2a1,1,0,0,1,0,2Zm0-5H25a1,1,0,0,1,0-2h2a1,1,0,0,1,0,2Z" style="fill:#264560"/></g></svg>