<svg xmlns="http://www.w3.org/2000/svg" viewBox="0 0 32 32"><title>office alt</title><g id="office_alt" data-name="office alt"><rect width="32" height="32" style="fill:none"/><path d="M22,1H10A1,1,0,0,0,9,2V31h4V24a1,1,0,0,1,1-1h4a1,1,0,0,1,1,1v7h4V2A1,1,0,0,0,22,1ZM14,19H12V17h2Zm0-5H12V12h2Zm0-5H12V7h2Zm6,10H18V17h2Zm0-5H18V12h2Zm0-5H18V7h2Z" style="fill:#364f6b"/><path d="M2,5A1,1,0,0,0,1,6V31H7V5ZM5,25H3V23H5Zm0-6H3V17H5Zm0-6H3V11H5Z" style="fill:#364f6b"/><path d="M25,5V31h6V6a1,1,0,0,0-1-1Zm2,18h2v2H27Zm0-6h2v2H27Zm0-6h2v2H27Z" style="fill:#364f6b"/></g></svg>