<svg xmlns="http://www.w3.org/2000/svg" viewBox="0 0 32 32"><title>organization</title><g id="organization"><rect width="32" height="32" style="fill:none"/><path d="M29,19H26V17a2.002,2.002,0,0,0-2-2H17V13h3a2.002,2.002,0,0,0,2-2V3a2.002,2.002,0,0,0-2-2H12a2.002,2.002,0,0,0-2,2v8a2.002,2.002,0,0,0,2,2h3v2H8a2.002,2.002,0,0,0-2,2v2H3a2.002,2.002,0,0,0-2,2v8a2.002,2.002,0,0,0,2,2h8a2.002,2.002,0,0,0,2-2V21a2.002,2.002,0,0,0-2-2H8V17H24v2H21a2.002,2.002,0,0,0-2,2v8a2.002,2.002,0,0,0,2,2h8a2.002,2.002,0,0,0,2-2V21A2.002,2.002,0,0,0,29,19Z" style="fill:#364f6b"/></g></svg>