<svg xmlns="http://www.w3.org/2000/svg" viewBox="0 0 32 32"><title>pages</title><g id="pages"><rect width="32" height="32" style="fill:none"/><path d="M26,5H25V4a3.0033,3.0033,0,0,0-3-3H7A3.0033,3.0033,0,0,0,4,4V25a3.0033,3.0033,0,0,0,3,3H8v1a2.002,2.002,0,0,0,2,2H26a2.002,2.002,0,0,0,2-2V7A2.002,2.002,0,0,0,26,5ZM22,27H14a1,1,0,0,1,0-2h8a1,1,0,0,1,0,2Zm0-4H14a1,1,0,0,1,0-2h8a1,1,0,0,1,0,2Zm1-7a1,1,0,0,1-1,1H14a1,1,0,0,1-1-1V10a1,1,0,0,1,1-1h8a1,1,0,0,1,1,1ZM10,5A2.002,2.002,0,0,0,8,7V26H7a1.0013,1.0013,0,0,1-1-1V4A1.0013,1.0013,0,0,1,7,3H22a1.0013,1.0013,0,0,1,1,1V5Z" style="fill:#364f6b"/></g></svg>