<svg xmlns="http://www.w3.org/2000/svg" viewBox="0 0 32 32"><title>pen</title><g id="pen"><rect width="32" height="32" style="fill:none"/><path d="M28.9141,10.5l.7929-.793a.9994.9994,0,0,0,0-1.414L28.4141,7,29.707,5.707a.9994.9994,0,0,0,0-1.414L29.4141,4,30.707,2.707a1,1,0,0,0-1.414-1.414L28,2.5859l-.293-.2929a.9994.9994,0,0,0-1.414,0L25,3.5859,23.707,2.293a.9994.9994,0,0,0-1.414,0l-18,18a.9994.9994,0,0,0,0,1.414l6,6a.9994.9994,0,0,0,1.414,0L27.5,11.9141,28.5859,13,25.293,16.293a1,1,0,0,0,1.414,1.414l4-4a.9994.9994,0,0,0,0-1.414Z" style="fill:#364f6b"/><path d="M1.293,25.293a.9994.9994,0,0,0,0,1.414L2.5859,28,1.293,29.293a1,1,0,0,0,1.414,1.414L4,29.4141,5.293,30.707a.9994.9994,0,0,0,1.414,0l1.8789-1.8789-5.414-5.414Z" style="fill:#364f6b"/></g></svg>