<svg xmlns="http://www.w3.org/2000/svg" viewBox="0 0 32 32"><title>percentage</title><g id="percentage"><rect width="32" height="32" style="fill:none"/><circle cx="11" cy="11" r="2" style="fill:#364f6b"/><circle cx="21" cy="21" r="2" style="fill:#364f6b"/><path d="M16,1A15,15,0,1,0,31,16,15.0167,15.0167,0,0,0,16,1ZM11,7a4,4,0,1,1-4,4A4.0042,4.0042,0,0,1,11,7ZM9.707,23.707a1,1,0,0,1-1.414-1.414l14-14a1,1,0,0,1,1.414,1.414ZM21,25a4,4,0,1,1,4-4A4.0039,4.0039,0,0,1,21,25Z" style="fill:#364f6b"/></g></svg>