<svg xmlns="http://www.w3.org/2000/svg" viewBox="0 0 32 32"><title>presentation</title><g id="presentation"><rect width="32" height="32" style="fill:none"/><path d="M30,22H28V4h2a1,1,0,0,0,0-2H2A1,1,0,0,0,2,4H4V22H2a1,1,0,0,0,0,2H14.3818l-2.2763,4.5527a1,1,0,0,0,1.789.8946L16,25.2363l2.1055,4.211a1,1,0,1,0,1.789-.8946L17.6182,24H30a1,1,0,0,0,0-2ZM8.293,16.293l4-4a.9994.9994,0,0,1,1.1543-.1875l3.3554,1.6777,5.49-5.49a1,1,0,0,1,1.414,1.414l-6,6a1,1,0,0,1-1.1543.1875l-3.3554-1.6777-3.49,3.49a1,1,0,0,1-1.414-1.414Z" style="fill:#364f6b"/></g></svg>