<svg xmlns="http://www.w3.org/2000/svg" viewBox="0 0 32 32"><title>presentation alt</title><g id="presentation_alt" data-name="presentation alt"><rect width="32" height="32" style="fill:none"/><path d="M30,22H28V4h2a1,1,0,0,0,0-2H2A1,1,0,0,0,2,4H4V22H2a1,1,0,0,0,0,2H14.3818l-2.2763,4.5527a1,1,0,0,0,1.789.8946L16,25.2363l2.1055,4.211a1,1,0,1,0,1.789-.8946L17.6182,24H30a1,1,0,0,0,0-2ZM18.1211,10.1719,15.293,13l2.8281,2.8281a1,1,0,0,1,0,1.4141,6,6,0,1,1,0-8.4844A1,1,0,0,1,18.1211,10.1719ZM20.95,8.7578a1,1,0,0,1,1.4141,0,6.0068,6.0068,0,0,1,0,8.4844,1,1,0,0,1-1.4141,0L17.4141,13.707a1,1,0,0,1,0-1.414Z" style="fill:#364f6b"/></g></svg>