<svg xmlns="http://www.w3.org/2000/svg" viewBox="0 0 32 32"><title>profit</title><g id="profit"><rect width="32" height="32" style="fill:none"/><path d="M24.5,6h-1a.5.5,0,0,1,0-1H26a1,1,0,0,0,0-2H25V2a1,1,0,0,0-2,0V3.0505A2.5,2.5,0,0,0,23.5,8h1a.5.5,0,0,1,0,1H22a1,1,0,0,0,0,2h1v1a1,1,0,0,0,2,0V10.95A2.5,2.5,0,0,0,24.5,6Z" style="fill:#364f6b"/><path d="M30,31H2a1,1,0,0,1-1-1V2A1,1,0,0,1,3,2V29H30a1,1,0,0,1,0,2Z" style="fill:#364f6b"/><path d="M24.707,15.293a.9994.9994,0,0,0-1.414,0L14,24.5859,10.707,21.293a.9994.9994,0,0,0-1.414,0L5,25.5859V27H6.4141L10,23.4141l3.293,3.2929a.9994.9994,0,0,0,1.414,0l10-10A.9994.9994,0,0,0,24.707,15.293Z" style="fill:#364f6b"/></g></svg>