<svg xmlns="http://www.w3.org/2000/svg" viewBox="0 0 32 32"><title>qr code</title><g id="qr_code" data-name="qr code"><rect width="32" height="32" style="fill:none"/><path d="M30,31H19a1,1,0,0,1-1-1V19a1,1,0,0,1,1-1H30a1,1,0,0,1,1,1V30A1,1,0,0,1,30,31ZM20,29h9V20H20Z" style="fill:#364f6b"/><path d="M26,27H23a1,1,0,0,1,0-2h2V23a1,1,0,0,1,2,0v3A1,1,0,0,1,26,27Z" style="fill:#364f6b"/><path d="M27,14H19a1,1,0,0,1-1-1V5a1,1,0,0,1,2,0v7h7a1,1,0,0,1,0,2Z" style="fill:#364f6b"/><path d="M30,11a1,1,0,0,1-1-1V3H22a1,1,0,0,1,0-2h8a1,1,0,0,1,1,1v8A1,1,0,0,1,30,11Z" style="fill:#364f6b"/><path d="M13,14H2a1,1,0,0,1-1-1V2A1,1,0,0,1,2,1H13a1,1,0,0,1,1,1V13A1,1,0,0,1,13,14ZM3,12h9V3H3Z" style="fill:#364f6b"/><path d="M9,31H2a1,1,0,0,1-1-1V19a1,1,0,0,1,1-1H13a1,1,0,0,1,1,1v7a1,1,0,0,1-2,0V20H3v9H9a1,1,0,0,1,0,2Z" style="fill:#364f6b"/><rect x="5" y="5" width="5" height="5" style="fill:#364f6b"/><rect x="5" y="22" width="5" height="5" style="fill:#364f6b"/><rect x="22" y="5" width="5" height="5" style="fill:#364f6b"/></g></svg>