<svg xmlns="http://www.w3.org/2000/svg" viewBox="0 0 32 32"><title>receipt</title><g id="receipt"><rect width="32" height="32" style="fill:none"/><path d="M30,1H2A1,1,0,0,0,1,2V29.9984a1.001,1.001,0,0,0,1.4961.8682L9,27.1505l6.5039,3.7161a.9992.9992,0,0,0,.9922,0L23,27.1505l6.5039,3.7161A1,1,0,0,0,31,29.9984V2A1,1,0,0,0,30,1ZM15.5,15.9992h1a2.5,2.5,0,0,1,.5,4.9494v1.0506a1,1,0,1,1-2,0v-1H14a1,1,0,0,1,0-2h2.501a.5.5,0,0,0-.001-1h-1A2.5,2.5,0,0,1,15,13.05V11.9992a1,1,0,0,1,2,0v1h1a1,1,0,0,1,0,2H15.5a.5.5,0,0,0,0,1Zm7.5-8H9a1,1,0,0,1,0-2H23a1,1,0,0,1,0,2Z" style="fill:#364f6b"/></g></svg>