<svg xmlns="http://www.w3.org/2000/svg" viewBox="0 0 32 32"><title>rocket launch</title><g id="rocket_launch" data-name="rocket launch"><rect width="32" height="32" style="fill:none"/><path d="M30.918,29.6058,27.933,22.64A22.1858,22.1858,0,0,1,26.485,31h3.5141A1.0006,1.0006,0,0,0,30.918,29.6058Z" style="fill:#364f6b"/><path d="M3.9464,22.9212,1.082,29.6058A1.0006,1.0006,0,0,0,2.0009,31H5.39A21.9532,21.9532,0,0,1,3.9464,22.9212Z" style="fill:#364f6b"/><path d="M16.2832,1.0615a1.0024,1.0024,0,0,0-.6914,0c-.9883.3648-9.6543,4.0576-9.6543,21.2984,0,5.2714,1.3423,7.98,1.3994,8.0922A1,1,0,0,0,8.229,31H23.646a1,1,0,0,0,.8921-.5479c.0571-.1127,1.3994-2.8208,1.3994-8.0922C25.9375,5.1191,17.2715,1.4263,16.2832,1.0615ZM16,16.9927a4,4,0,1,1,4-4A4.0046,4.0046,0,0,1,16,16.9927Z" style="fill:#364f6b"/></g></svg>