<svg xmlns="http://www.w3.org/2000/svg" viewBox="0 0 32 32"><title>savings</title><g id="savings"><rect width="32" height="32" style="fill:none"/><path d="M30,1H2A1,1,0,0,0,1,2V30a1,1,0,0,0,1,1H30a1,1,0,0,0,1-1V2A1,1,0,0,0,30,1ZM27,26a1,1,0,0,1-1,1H6a1,1,0,0,1-1-1V6A1,1,0,0,1,6,5H26a1,1,0,0,1,1,1Z" style="fill:#364f6b"/><path d="M22,15H20.8989a4.9686,4.9686,0,0,0-.7319-1.7529l.54-.54a1,1,0,0,0-1.414-1.414l-.54.54A4.9686,4.9686,0,0,0,17,11.1011V10a1,1,0,0,0-2,0v1.1011a4.9686,4.9686,0,0,0-1.7529.7319l-.54-.54a1,1,0,0,0-1.414,1.414l.54.54A4.9686,4.9686,0,0,0,11.1011,15H10a1,1,0,0,0,0,2h1.1011a4.9686,4.9686,0,0,0,.7319,1.7529l-.54.54a1,1,0,0,0,1.414,1.414l.54-.54A4.9686,4.9686,0,0,0,15,20.8989V22a1,1,0,0,0,2,0V20.8989a4.9686,4.9686,0,0,0,1.7529-.7319l.54.54a1,1,0,0,0,1.414-1.414l-.54-.54A4.9686,4.9686,0,0,0,20.8989,17H22a1,1,0,0,0,0-2Z" style="fill:#364f6b"/></g></svg>