<svg xmlns="http://www.w3.org/2000/svg" viewBox="0 0 32 32"><title>shipping</title><g id="shipping"><rect width="32" height="32" style="fill:none"/><path d="M30.707,12.293l-2-2A1,1,0,0,0,28,10H24V8a3.0033,3.0033,0,0,0-3-3H7A3.0033,3.0033,0,0,0,4,8H8a2.9869,2.9869,0,0,1,2.22,5A2.9869,2.9869,0,0,1,8,18H4v5a1,1,0,0,0,1,1H7.142a3.9807,3.9807,0,0,0,7.716,0h4.284a3.9807,3.9807,0,0,0,7.716,0H30a1,1,0,0,0,1-1V13A.9993.9993,0,0,0,30.707,12.293Z" style="fill:#364f6b"/><path d="M8,16a1,1,0,0,0,0-2H4a1,1,0,0,0,0,2Z" style="fill:#364f6b"/><path d="M9,11a1,1,0,0,0-1-1H2a1,1,0,0,0,0,2H8A1,1,0,0,0,9,11Z" style="fill:#364f6b"/></g></svg>