<svg xmlns="http://www.w3.org/2000/svg" viewBox="0 0 32 32"><title>shopping cart alt</title><g id="shopping_cart_alt" data-name="shopping cart alt"><rect width="32" height="32" style="fill:none"/><path d="M11,31a4.0045,4.0045,0,0,0,4-4H7A4.0045,4.0045,0,0,0,11,31Z" style="fill:#364f6b"/><path d="M25,31a4.0045,4.0045,0,0,0,4-4H21A4.0045,4.0045,0,0,0,25,31Z" style="fill:#364f6b"/><path d="M30,23H6a1,1,0,0,1,0-2H26a1,1,0,0,0,.99-.8584l2-14A1.0007,1.0007,0,0,0,28,5H6.7809L5.97,1.7573A1,1,0,0,0,5,1H2A1,1,0,0,0,2,3H4.2192l.7987,3.1951L6.8472,19H6a3,3,0,0,0,0,6H30a1,1,0,0,0,0-2Z" style="fill:#364f6b"/></g></svg>