<svg xmlns="http://www.w3.org/2000/svg" viewBox="0 0 32 32"><title>shopping bag</title><g id="shopping_bag" data-name="shopping bag"><rect width="32" height="32" style="fill:none"/><path d="M21.0338,9h2.3324L18.8574,1.4855a1,1,0,1,0-1.7148,1.0293Z" style="fill:#364f6b"/><path d="M30,11H2a1,1,0,0,0-.976,1.2168l4,18A1,1,0,0,0,6,31H26a1,1,0,0,0,.976-.7832l4-18A1,1,0,0,0,30,11ZM11,24a1,1,0,1,1-2,0V18a1,1,0,0,1,2,0Zm6,1a1,1,0,1,1-2,0V17a1,1,0,0,1,2,0Zm6-1a1,1,0,1,1-2,0V18a1,1,0,0,1,2,0Z" style="fill:#364f6b"/><path d="M10.9662,9l3.8912-6.4853a1,1,0,1,0-1.7148-1.0293L8.6338,9Z" style="fill:#364f6b"/></g></svg>