<svg xmlns="http://www.w3.org/2000/svg" viewBox="0 0 32 32"><title>shop</title><g id="shop"><rect width="32" height="32" style="fill:none"/><path d="M30.8945,5.5527l-2-4A1,1,0,0,0,28,1H4a1,1,0,0,0-.8945.5527l-2,4A1,1,0,0,0,1,6,6,6,0,0,0,11.5,9.9546a5.9715,5.9715,0,0,0,9,0A6.0007,6.0007,0,0,0,31,6,1,1,0,0,0,30.8945,5.5527Z" style="fill:#364f6b"/><path d="M24.9336,14.0005h-.001A7.7271,7.7271,0,0,1,20.49,12.6182a7.9825,7.9825,0,0,1-8.9809,0A7.7258,7.7258,0,0,1,7.0649,14,8.3254,8.3254,0,0,1,3,12.9142V30a1,1,0,0,0,1,1h8V23a1,1,0,0,1,1-1h6a1,1,0,0,1,1,1v8h8a1,1,0,0,0,1-1V12.9042A8.261,8.261,0,0,1,24.9336,14.0005ZM12,19.3333A.6665.6665,0,0,1,11.3333,20H8.6667A.6665.6665,0,0,1,8,19.3333V16.6667A.6665.6665,0,0,1,8.6667,16h2.6666A.6665.6665,0,0,1,12,16.6667Zm12,0A.6665.6665,0,0,1,23.3333,20H20.6667A.6665.6665,0,0,1,20,19.3333V16.6667A.6665.6665,0,0,1,20.6667,16h2.6666A.6665.6665,0,0,1,24,16.6667Z" style="fill:#364f6b"/></g></svg>