<svg xmlns="http://www.w3.org/2000/svg" viewBox="0 0 32 32"><title>shopping cart</title><g id="shopping_cart" data-name="shopping cart"><rect width="32" height="32" style="fill:none"/><path d="M7.2642,23.7081,8.6182,21H26a1,1,0,0,0,.99-.8584l2-14A1.0011,1.0011,0,0,0,28,5H6.78L5.97,1.7573A1,1,0,0,0,5,1H2A1,1,0,0,0,2,3H4.2188l.7973,3.1862,1.95,13.6463L5.3635,23.0367C5.2419,23.0256,5.1245,23,5,23a4.0118,4.0118,0,1,0,2.2642.7081Z" style="fill:#364f6b"/><path d="M10.91,26a5.5822,5.5822,0,0,1,0,2H21.09a5.5822,5.5822,0,0,1,0-2Z" style="fill:#364f6b"/><circle cx="27" cy="27" r="4" style="fill:#364f6b"/></g></svg>