<svg xmlns="http://www.w3.org/2000/svg" viewBox="0 0 32 32"><title>shredder</title><g id="shredder"><rect width="32" height="32" style="fill:none"/><path d="M21,12V27a1,1,0,0,0,2,0V12Z" style="fill:#364f6b"/><path d="M17,12V23a1,1,0,0,0,2,0V12Z" style="fill:#364f6b"/><path d="M13,12V29a1,1,0,0,0,2,0V12Z" style="fill:#364f6b"/><path d="M9,12V25a1,1,0,0,0,2,0V12Z" style="fill:#364f6b"/><path d="M24,4V3a3.0033,3.0033,0,0,0-3-3H11A3.0033,3.0033,0,0,0,8,3V4Z" style="fill:#364f6b"/><path d="M29,6H3A2.002,2.002,0,0,0,1,8V20a2.002,2.002,0,0,0,2,2H7V12H6a1,1,0,0,1,0-2H26a1,1,0,0,1,0,2H25V22h4a2.002,2.002,0,0,0,2-2V8A2.002,2.002,0,0,0,29,6Z" style="fill:#364f6b"/></g></svg>