<svg xmlns="http://www.w3.org/2000/svg" viewBox="0 0 32 32"><title>speech</title><g id="speech"><rect width="32" height="32" style="fill:none"/><circle cx="16" cy="21" r="4" style="fill:#364f6b"/><path d="M28,1H4A3.0033,3.0033,0,0,0,1,4v8a3.0033,3.0033,0,0,0,3,3H22v5a1,1,0,0,0,1.832.5547L27.5352,15H28a3.0033,3.0033,0,0,0,3-3V4A3.0033,3.0033,0,0,0,28,1Z" style="fill:#364f6b"/><path d="M20.6514,24.7836a5.989,5.989,0,0,1-9.3028,0A6.9768,6.9768,0,0,0,9,30a1,1,0,0,0,1,1H22a1,1,0,0,0,1-1A6.9768,6.9768,0,0,0,20.6514,24.7836Z" style="fill:#364f6b"/></g></svg>