<svg xmlns="http://www.w3.org/2000/svg" viewBox="0 0 32 32"><title>stapler</title><g id="stapler"><rect width="32" height="32" style="fill:none"/><path d="M1,21a5.0059,5.0059,0,0,0,5,5H26a5.0059,5.0059,0,0,0,5-5,1,1,0,0,0-1-1H2A1,1,0,0,0,1,21Z" style="fill:#364f6b"/><path d="M26,6H6a5.0058,5.0058,0,0,0-5,5.0438A.989.989,0,0,0,2,12H31V10.1046A5.1183,5.1183,0,0,0,26,6Z" style="fill:#364f6b"/><path d="M3,14v1a1,1,0,0,0,1,1H6v1a1,1,0,0,0,2,0V16H21.1006A5,5,0,0,0,31,15V14Z" style="fill:#364f6b"/></g></svg>