<svg xmlns="http://www.w3.org/2000/svg" viewBox="0 0 32 32"><title>teamwork</title><g id="teamwork"><rect width="32" height="32" style="fill:none"/><circle cx="16" cy="5" r="4" style="fill:#364f6b"/><path d="M12.6512,24.7836a5.9886,5.9886,0,0,1-9.3024,0A6.9774,6.9774,0,0,0,1,30a1,1,0,0,0,1,1H14a1,1,0,0,0,1-1A6.9774,6.9774,0,0,0,12.6512,24.7836Z" style="fill:#364f6b"/><circle cx="8" cy="21" r="4" style="fill:#364f6b"/><circle cx="24" cy="21" r="4" style="fill:#364f6b"/><path d="M18.707,20.293,17,18.5859V17a1,1,0,0,0-2,0v1.5859L13.293,20.293a1,1,0,0,0,1.414,1.414L16,20.4141l1.293,1.2929a1,1,0,0,0,1.414-1.414Z" style="fill:#364f6b"/><path d="M20.6512,8.7836a5.9886,5.9886,0,0,1-9.3024,0A6.9774,6.9774,0,0,0,9,14a1,1,0,0,0,1,1H22a1,1,0,0,0,1-1A6.9774,6.9774,0,0,0,20.6512,8.7836Z" style="fill:#364f6b"/><path d="M28.6512,24.7836a5.9886,5.9886,0,0,1-9.3024,0A6.9774,6.9774,0,0,0,17,30a1,1,0,0,0,1,1H30a1,1,0,0,0,1-1A6.9774,6.9774,0,0,0,28.6512,24.7836Z" style="fill:#364f6b"/></g></svg>