<svg xmlns="http://www.w3.org/2000/svg" viewBox="0 0 32 32"><title>wallet</title><g id="wallet"><rect width="32" height="32" style="fill:none"/><path d="M23,24v6h5a3,3,0,0,0,3-3V24Z" style="fill:#364f6b"/><path d="M31,8V5a3,3,0,0,0-3-3H23V8Z" style="fill:#364f6b"/><path d="M19.2087,10a6.14,6.14,0,0,0-6.158,5.2106A6.0072,6.0072,0,0,0,19,22H31V10ZM18,17a1,1,0,1,1,1-1A1,1,0,0,1,18,17Z" style="fill:#364f6b"/><path d="M21,24H19a8.0107,8.0107,0,0,1-7.9331-9.0439A8.1258,8.1258,0,0,1,19.209,8H21V2H4A3,3,0,0,0,1,5V27a3,3,0,0,0,3,3H21Z" style="fill:#364f6b"/></g></svg>