<svg xmlns="http://www.w3.org/2000/svg" viewBox="0 0 32 32"><title>watch alt</title><g id="watch_alt" data-name="watch alt"><rect width="32" height="32" style="fill:none"/><path d="M26,10H25a3.0033,3.0033,0,0,0-3-3H10a3.0033,3.0033,0,0,0-3,3V20H6a1,1,0,0,0,0,2H7a3.0033,3.0033,0,0,0,3,3H22a3.0033,3.0033,0,0,0,3-3V12h1a1,1,0,0,0,0-2Zm-6,7a1,1,0,0,1-1-1,3,3,0,1,0-3,3,1,1,0,0,1,0,2,5,5,0,1,1,5-5A1,1,0,0,1,20,17Z" style="fill:#364f6b"/><path d="M10,29a2.0023,2.0023,0,0,0,2,2h8a2.0023,2.0023,0,0,0,2-2V27H10Z" style="fill:#364f6b"/><path d="M22,3a2.0023,2.0023,0,0,0-2-2H12a2.0023,2.0023,0,0,0-2,2V5H22Z" style="fill:#364f6b"/></g></svg>