<svg xmlns="http://www.w3.org/2000/svg" viewBox="0 0 32 32"><title>watch</title><g id="watch"><rect width="32" height="32" style="fill:none"/><path d="M16,5A11,11,0,1,0,27,16,11.0125,11.0125,0,0,0,16,5Zm2,12H16a1,1,0,0,1-1-1V12a1,1,0,0,1,2,0v3h1a1,1,0,0,1,0,2Z" style="fill:#364f6b"/><path d="M16,29a12.9067,12.9067,0,0,1-5.3183-1.15l.5981,2.3923A1,1,0,0,0,12.25,31h7.5a1,1,0,0,0,.97-.7578l.5981-2.3923A12.9067,12.9067,0,0,1,16,29Z" style="fill:#364f6b"/><path d="M16,3a12.9067,12.9067,0,0,1,5.3183,1.15L20.72,1.7578A1,1,0,0,0,19.75,1h-7.5a1,1,0,0,0-.97.7578L10.6817,4.15A12.9067,12.9067,0,0,1,16,3Z" style="fill:#364f6b"/></g></svg>