<svg xmlns="http://www.w3.org/2000/svg" viewBox="0 0 32 32"><title>alarm</title><g id="alarm"><rect width="32" height="32" style="fill:none"/><path d="M4.707,11.707l4-4A1,1,0,0,0,7.293,6.293l-4,4a1,1,0,0,0,1.414,1.414Z" style="fill:#364f6b"/><path d="M28.707,10.293l-4-4a1,1,0,0,0-1.414,1.414l4,4a1,1,0,0,0,1.414-1.414Z" style="fill:#364f6b"/><path d="M19.1519,7.434A3.961,3.961,0,0,0,20,5a4,4,0,0,0-8,0,3.96,3.96,0,0,0,.8483,2.434,12,12,0,1,0,6.3036,0ZM14,5a2,2,0,1,1,2,2A2.0023,2.0023,0,0,1,14,5Zm3,14a1,1,0,0,1-1,1H12a1,1,0,0,1,0-2h3V13a1,1,0,0,1,2,0Z" style="fill:#364f6b"/></g></svg>