<svg xmlns="http://www.w3.org/2000/svg" viewBox="0 0 32 32"><title>bug</title><g id="bug"><rect width="32" height="32" style="fill:none"/><path d="M29,17H25V14c0-.1257-.0137-.2479-.0189-.3724l3.4662-1.7331a1,1,0,0,0-.8946-1.789l-2.8991,1.45a9.0231,9.0231,0,0,0-6.2087-6.2087l1.45-2.8991a1,1,0,1,0-1.789-.8946L16.3724,5.0189C16.2479,5.0137,16.1257,5,16,5s-.2479.0137-.3724.0189L13.8945,1.5527a1,1,0,0,0-1.789.8946l1.45,2.8991a9.0237,9.0237,0,0,0-6.2087,6.2087l-2.8991-1.45a1,1,0,0,0-.8946,1.789l3.4662,1.7331C7.0137,13.7521,7,13.8743,7,14v3H3a1,1,0,0,0,0,2H7v3c0,.1257.0137.2479.0189.3724L3.5527,24.1055a1,1,0,1,0,.8946,1.789l2.8991-1.45a8.9895,8.9895,0,0,0,17.3072,0l2.8991,1.45a1,1,0,0,0,.8946-1.789l-3.4662-1.7331C24.9863,22.2479,25,22.1257,25,22V19h4a1,1,0,0,0,0-2Z" style="fill:#364f6b"/></g></svg>