<svg xmlns="http://www.w3.org/2000/svg" viewBox="0 0 32 32"><title>check double</title><g id="check_double" data-name="check double"><rect width="32" height="32" style="fill:none"/><path d="M16,1A15,15,0,1,0,31,16,15.0167,15.0167,0,0,0,16,1Zm5.7524,14.6582-7,8A.9991.9991,0,0,1,13.2,23.6l-3-4A1,1,0,1,1,11.8,18.4l2.26,3.0127,6.188-7.0713a1,1,0,1,1,1.5048,1.3164Zm0-6-7,8A.9991.9991,0,0,1,13.2,17.6l-3-4A1,1,0,1,1,11.8,12.4l2.26,3.0127,6.188-7.0713a1,1,0,1,1,1.5048,1.3164Z" style="fill:#364f6b"/></g></svg>