<svg xmlns="http://www.w3.org/2000/svg" viewBox="0 0 32 32"><title>cloud disable</title><g id="cloud_disable" data-name="cloud disable"><rect width="32" height="32" style="fill:none"/><path d="M3,17a5.2272,5.2272,0,0,0,.0273.5327A3.9566,3.9566,0,0,0,1,21a4.0042,4.0042,0,0,0,4,4H20.7578L7.0789,11.3211A6.006,6.006,0,0,0,3,17Z" style="fill:#364f6b"/><path d="M31,18a7.0081,7.0081,0,0,0-7-7,6.9224,6.9224,0,0,0-1.5957.186,6.9913,6.9913,0,0,0-11.636-1.8318L6.707,5.293A1,1,0,0,0,5.293,6.707l20,20a1,1,0,0,0,1.414-1.414l-.6216-.6217A7.0014,7.0014,0,0,0,31,18Z" style="fill:#364f6b"/></g></svg>