<svg xmlns="http://www.w3.org/2000/svg" viewBox="0 0 32 32"><title>cloud upload</title><g id="cloud_upload" data-name="cloud upload"><rect width="32" height="32" style="fill:none"/><path d="M19.707,17.293l-3-3a1.0039,1.0039,0,0,0-1.4146,0l-3,3a1,1,0,0,0,1.414,1.414L15,17.4141V27a1,1,0,0,0,2,0V17.4141l1.293,1.2929a1,1,0,0,0,1.414-1.414Z" style="fill:#364f6b"/><path d="M24,8a6.9325,6.9325,0,0,0-1.5962.186,6.9965,6.9965,0,0,0-12.75-.1435A5.08,5.08,0,0,0,9,8a6.0066,6.0066,0,0,0-6,6c0,.1748.0088.3516.0269.5327A3.9561,3.9561,0,0,0,1,18a4.0045,4.0045,0,0,0,4,4h8V21a3.003,3.003,0,0,1-2.1211-5.1211l2.9995-2.9995a3.004,3.004,0,0,1,4.2432,0l2.9995,2.9995A3.0031,3.0031,0,0,1,19,21v1h5A7,7,0,0,0,24,8Z" style="fill:#364f6b"/></g></svg>