<svg xmlns="http://www.w3.org/2000/svg" viewBox="0 0 32 32"><title>cloud download</title><g id="cloud_download" data-name="cloud download"><rect width="32" height="32" style="fill:none"/><path d="M19.707,23.2935a1,1,0,0,0-1.414,0L17,24.5865V15.0006a1,1,0,1,0-2,0v9.5859l-1.293-1.293a1,1,0,0,0-1.414,1.4141l2.9993,2.9993a1.0023,1.0023,0,0,0,1.4154,0l2.9993-2.9993A1,1,0,0,0,19.707,23.2935Z" style="fill:#364f6b"/><path d="M24,8.0006a6.9325,6.9325,0,0,0-1.5962.186,6.9965,6.9965,0,0,0-12.75-.1436A5.08,5.08,0,0,0,9,8.0006a6.0066,6.0066,0,0,0-6,6c0,.1748.0088.3515.0269.5327A3.9561,3.9561,0,0,0,1,18.0006a4.0046,4.0046,0,0,0,4,4h8v-7a3,3,0,1,1,6,0v7h5a7,7,0,1,0,0-14Z" style="fill:#364f6b"/></g></svg>