<svg xmlns="http://www.w3.org/2000/svg" viewBox="0 0 32 32"><title>cogwheel</title><g id="cogwheel"><rect width="32" height="32" style="fill:none"/><path d="M30,13H26.584a10.897,10.897,0,0,0-.9219-2.2476L27.707,8.707a.9994.9994,0,0,0,0-1.414l-3-3a.9994.9994,0,0,0-1.414,0L21.248,6.3379A10.8957,10.8957,0,0,0,19,5.4155V2a1,1,0,0,0-1-1H14a1,1,0,0,0-1,1V5.4155a10.8834,10.8834,0,0,0-2.2476.9224L8.707,4.293a.9994.9994,0,0,0-1.414,0l-3,3a.9994.9994,0,0,0,0,1.414l2.0449,2.0454A10.8834,10.8834,0,0,0,5.4155,13H2a1,1,0,0,0-1,1v4a1,1,0,0,0,1,1H5.4155a10.8834,10.8834,0,0,0,.9224,2.2476L4.293,23.293a.9994.9994,0,0,0,0,1.414l3,3a.9994.9994,0,0,0,1.414,0l2.0454-2.0449A10.8834,10.8834,0,0,0,13,26.5845V30a1,1,0,0,0,1,1h4a1,1,0,0,0,1-1V26.5845a10.8957,10.8957,0,0,0,2.248-.9224l2.045,2.0449a.9994.9994,0,0,0,1.414,0l3-3a.9994.9994,0,0,0,0-1.414l-2.0449-2.0454A10.897,10.897,0,0,0,26.584,19H30a1,1,0,0,0,1-1V14A1,1,0,0,0,30,13ZM16,21a5,5,0,1,1,5-5A5,5,0,0,1,16,21Z" style="fill:#364f6b"/></g></svg>