<svg xmlns="http://www.w3.org/2000/svg" viewBox="0 0 32 32"><title>cogwheel alt</title><g id="cogwheel_alt" data-name="cogwheel alt"><rect width="32" height="32" style="fill:none"/><path d="M29.5544,20.168l-2.8036-1.8692a10.7359,10.7359,0,0,0,0-4.5976l2.8036-1.8692a1,1,0,0,0,.34-1.2793l-2-4a1.0015,1.0015,0,0,0-1.4492-.3847L23.6024,8.0635A10.8666,10.8666,0,0,0,19,5.4146V2a1,1,0,0,0-1-1H14a1,1,0,0,0-1,1V5.4146A10.8666,10.8666,0,0,0,8.3976,8.0635L5.5549,6.168a1.0009,1.0009,0,0,0-1.4492.3847l-2,4a1,1,0,0,0,.34,1.2793l2.8036,1.8692a10.7359,10.7359,0,0,0,0,4.5976L2.4456,20.168a1,1,0,0,0-.34,1.2793l2,4a1.0008,1.0008,0,0,0,1.4492.3847l2.8427-1.8955A10.8666,10.8666,0,0,0,13,26.5854V30a1,1,0,0,0,1,1h4a1,1,0,0,0,1-1V26.5854a10.8666,10.8666,0,0,0,4.6025-2.6489l2.8427,1.8955a1.001,1.001,0,0,0,1.4492-.3847l2-4A1,1,0,0,0,29.5544,20.168ZM16,21a5,5,0,1,1,5-5A5,5,0,0,1,16,21Z" style="fill:#364f6b"/></g></svg>