<svg xmlns="http://www.w3.org/2000/svg" viewBox="0 0 32 32"><title>cross</title><g id="cross"><rect width="32" height="32" style="fill:none"/><path d="M30.707,8.293l-7-7A.9993.9993,0,0,0,23,1H9a1,1,0,0,0-.707.293l-7,7A.9993.9993,0,0,0,1,9V23a.9993.9993,0,0,0,.293.707l7,7A1,1,0,0,0,9,31H23a.9993.9993,0,0,0,.707-.293l7-7A.9993.9993,0,0,0,31,23V9A.9993.9993,0,0,0,30.707,8.293Zm-8,13a1,1,0,0,1-1.414,1.414L16,17.4141,10.707,22.707a1,1,0,0,1-1.414-1.414L14.5859,16,9.293,10.707a1,1,0,0,1,1.414-1.414L16,14.5859,21.293,9.293a1,1,0,0,1,1.414,1.414L17.4141,16Z" style="fill:#364f6b"/></g></svg>