<svg xmlns="http://www.w3.org/2000/svg" viewBox="0 0 32 32"><title>cut</title><g id="cut"><rect width="32" height="32" style="fill:none"/><path d="M8.9883,31a6.02,6.02,0,1,1,1.0547-.0928A6.0386,6.0386,0,0,1,8.9883,31ZM9.01,20.9981a4.0827,4.0827,0,0,0-.7032.0615,3.9839,3.9839,0,1,0,.7032-.0615Z" style="fill:#364f6b"/><path d="M11.999,22a1,1,0,0,1-.8242-1.5644l13-19a1,1,0,1,1,1.65,1.1289l-13,19A.9979.9979,0,0,1,11.999,22Z" style="fill:#364f6b"/><path d="M23.0117,31a6.0386,6.0386,0,0,1-1.0547-.0928A5.9742,5.9742,0,1,1,23.0117,31ZM22.99,20.9981a4.0074,4.0074,0,1,0,.7032.0615A4.0827,4.0827,0,0,0,22.99,20.9981Z" style="fill:#364f6b"/><path d="M14.7885,11.6127,7.8252,1.4356a1,1,0,1,0-1.65,1.1289l7.4023,10.8187Z" style="fill:#364f6b"/><path d="M18.4229,16.9245l-1.2115,1.77,1.9634,2.87a1,1,0,0,0,1.65-1.1289Z" style="fill:#364f6b"/></g></svg>