<svg xmlns="http://www.w3.org/2000/svg" viewBox="0 0 32 32"><title>download queue</title><g id="download_queue" data-name="download queue"><rect width="32" height="32" style="fill:none"/><path d="M7.293,23.2936,6,24.5867V19a1,1,0,1,0-2,0v5.5866L2.707,23.2936a1,1,0,0,0-1.414,1.4142l2.9993,3a1.0023,1.0023,0,0,0,1.4154,0l2.9993-3a1,1,0,0,0-1.414-1.4142Z" style="fill:#364f6b"/><path d="M30,22H13a1,1,0,0,0,0,2H30a1,1,0,0,0,0-2Z" style="fill:#364f6b"/><path d="M7.293,9.2936,6,10.5867V5A1,1,0,1,0,4,5v5.5866L2.707,9.2936a1,1,0,0,0-1.414,1.4142l2.9993,3a1.0023,1.0023,0,0,0,1.4154,0l2.9993-3A1,1,0,0,0,7.293,9.2936Z" style="fill:#364f6b"/><path d="M13,10H30a1,1,0,0,0,0-2H13a1,1,0,0,0,0,2Z" style="fill:#364f6b"/></g></svg>