<svg xmlns="http://www.w3.org/2000/svg" viewBox="0 0 32 32"><title>eye close</title><g id="eye_close" data-name="eye close"><rect width="32" height="32" style="fill:none"/><path d="M30.9116,12.59C30.7539,12.2393,26.9194,4,16,4S1.2461,12.2393,1.0884,12.59a.9972.9972,0,0,0,0,.82C1.2461,13.7607,5.0806,22,16,22s14.7539-8.2393,14.9116-8.59A.9972.9972,0,0,0,30.9116,12.59Z" style="fill:#364f6b"/><path d="M25.8664,21.4523a17.6379,17.6379,0,0,1-1.8722.956L26.293,24.707a1,1,0,0,0,1.414-1.414Z" style="fill:#364f6b"/><path d="M16,24c-.3472,0-.6655-.0332-1-.048V27a1,1,0,0,0,2,0V23.952C16.6655,23.9668,16.3472,24,16,24Z" style="fill:#364f6b"/><path d="M6.1337,21.4523,4.293,23.293a1,1,0,0,0,1.414,1.414l2.2989-2.2988A17.6372,17.6372,0,0,1,6.1337,21.4523Z" style="fill:#364f6b"/></g></svg>