<svg xmlns="http://www.w3.org/2000/svg" viewBox="0 0 32 32"><title>eye open</title><g id="eye_open" data-name="eye open"><rect width="32" height="32" style="fill:none"/><path d="M30.9121,18.59a15.4515,15.4515,0,0,0-6.5033-6.5846L27.707,8.707a1,1,0,1,0-1.414-1.414L22.4555,11.13A17.885,17.885,0,0,0,17,10.0471V5a1,1,0,0,0-2,0v5.0471A17.885,17.885,0,0,0,9.5445,11.13L5.707,7.293A1,1,0,1,0,4.293,8.707l3.2982,3.2982A15.4515,15.4515,0,0,0,1.0879,18.59a1.0011,1.0011,0,0,0,0,.82C1.2461,19.7607,5.0811,28,16,28s14.7539-8.2393,14.9121-8.59A1.0011,1.0011,0,0,0,30.9121,18.59ZM16,25a6,6,0,1,1,6-6A6.0066,6.0066,0,0,1,16,25Z" style="fill:#364f6b"/></g></svg>