<svg xmlns="http://www.w3.org/2000/svg" viewBox="0 0 32 32"><title>female user alt</title><g id="female_user_alt" data-name="female user alt"><rect width="32" height="32" style="fill:none"/><path d="M30.9544,29.7031A15.42,15.42,0,0,0,20.4488,19.6445a7.9783,7.9783,0,0,1-8.8976,0A15.42,15.42,0,0,0,1.0456,29.7031,1.0006,1.0006,0,0,0,2.0006,31H29.9994A1.0006,1.0006,0,0,0,30.9544,29.7031Z" style="fill:#364f6b"/><path d="M16,1A12.0135,12.0135,0,0,0,4,13v7a.9858.9858,0,0,0,.7706.9537,18.0828,18.0828,0,0,1,5.0726-2.8522,7.95,7.95,0,0,1-1.06-8.5322A1,1,0,0,1,9.6863,9H22.3137a1,1,0,0,1,.9023.5693,7.95,7.95,0,0,1-1.06,8.5322,18.0855,18.0855,0,0,1,5.0727,2.8521A.9859.9859,0,0,0,28,20V13A12.0135,12.0135,0,0,0,16,1Z" style="fill:#364f6b"/></g></svg>