<svg xmlns="http://www.w3.org/2000/svg" viewBox="0 0 32 32"><title>female user</title><g id="female_user" data-name="female user"><rect width="32" height="32" style="fill:none"/><path d="M9.8452,17.7319A7.6873,7.6873,0,0,1,8,12.7394a7.595,7.595,0,0,1,.7832-3.3562,1.0008,1.0008,0,0,1,.9023-.5569h12.629a1.0008,1.0008,0,0,1,.9023.5569A7.595,7.595,0,0,1,24,12.7394a7.6877,7.6877,0,0,1-1.8451,4.9925A18.045,18.045,0,0,1,28,21.1619V12.7394A11.8851,11.8851,0,0,0,16,1,11.8851,11.8851,0,0,0,4,12.7394v8.423A18.0442,18.0442,0,0,1,9.8452,17.7319Z" style="fill:#364f6b"/><path d="M30.9545,29.6926a15.4771,15.4771,0,0,0-10.5058-10.14,7.9242,7.9242,0,0,1-8.8974,0,15.4771,15.4771,0,0,0-10.5058,10.14A1.0074,1.0074,0,0,0,2.0006,31H29.9994A1.0074,1.0074,0,0,0,30.9545,29.6926Z" style="fill:#364f6b"/></g></svg>