<svg xmlns="http://www.w3.org/2000/svg" viewBox="0 0 32 32"><title>file</title><g id="file"><rect width="32" height="32" style="fill:none"/><path d="M30.3711,5.0719l-10-4A1.0009,1.0009,0,0,0,19,2.0007V29.9994a1.0017,1.0017,0,0,0,1.3711.9287l10-4A1,1,0,0,0,31,26V6.0006A1,1,0,0,0,30.3711,5.0719Z" style="fill:#364f6b"/><path d="M3,5A2.0026,2.0026,0,0,0,1,7V25a2.0027,2.0027,0,0,0,2,2H17V5ZM13,22H5a1,1,0,0,1,0-2h8a1,1,0,1,1,0,2Zm0-5H5a1,1,0,0,1,0-2h8a1,1,0,0,1,0,2Zm0-5H5a1,1,0,0,1,0-2h8a1,1,0,0,1,0,2Z" style="fill:#364f6b"/></g></svg>