<svg xmlns="http://www.w3.org/2000/svg" viewBox="0 0 32 32"><title>filter</title><g id="filter"><rect width="32" height="32" style="fill:none"/><path d="M2,6h9.142a3.9807,3.9807,0,0,0,7.716,0H30a1,1,0,0,0,0-2H18.858a3.9807,3.9807,0,0,0-7.716,0H2A1,1,0,0,0,2,6Z" style="fill:#364f6b"/><path d="M30,14H14.858a3.9807,3.9807,0,0,0-7.716,0H2a1,1,0,0,0,0,2H7.142a3.9807,3.9807,0,0,0,7.716,0H30a1,1,0,0,0,0-2Z" style="fill:#364f6b"/><path d="M30,24H20.858a3.9807,3.9807,0,0,0-7.716,0H2a1,1,0,0,0,0,2H13.142a3.9807,3.9807,0,0,0,7.716,0H30a1,1,0,0,0,0-2Z" style="fill:#364f6b"/></g></svg>