<svg xmlns="http://www.w3.org/2000/svg" viewBox="0 0 32 32"><title>fullscreen</title><g id="fullscreen"><rect width="32" height="32" style="fill:none"/><path d="M6,25H1v5a1,1,0,0,0,1,1H7V26A1,1,0,0,0,6,25Z" style="fill:#364f6b"/><path d="M29,1H3A2.002,2.002,0,0,0,1,3V23H6a3.0033,3.0033,0,0,1,3,3v5H29a2.002,2.002,0,0,0,2-2V3A2.002,2.002,0,0,0,29,1ZM24,14a1,1,0,0,1-2,0V11.4141L11.707,21.707a1,1,0,0,1-1.414-1.414L20.5859,10H18a1,1,0,0,1,0-2h5a1.0047,1.0047,0,0,1,1,1Z" style="fill:#364f6b"/></g></svg>