<svg xmlns="http://www.w3.org/2000/svg" viewBox="0 0 32 32"><title>lifebuoy</title><g id="lifebuoy"><rect width="32" height="32" style="fill:none"/><path d="M17.0034,8.0422a8.0214,8.0214,0,0,1,6.9544,6.9544H31A15.05,15.05,0,0,0,17.0034,1Z" style="fill:#364f6b"/><path d="M23.9578,17.0034a8.0214,8.0214,0,0,1-6.9544,6.9544V31A15.05,15.05,0,0,0,31,17.0034Z" style="fill:#364f6b"/><path d="M8.0422,14.9966a8.0214,8.0214,0,0,1,6.9544-6.9544V1A15.05,15.05,0,0,0,1,14.9966Z" style="fill:#364f6b"/><path d="M14.9966,23.9578a8.0214,8.0214,0,0,1-6.9544-6.9544H1A15.05,15.05,0,0,0,14.9966,31Z" style="fill:#364f6b"/></g></svg>