<svg xmlns="http://www.w3.org/2000/svg" viewBox="0 0 32 32"><title>list</title><g id="list"><rect width="32" height="32" style="fill:none"/><circle cx="5" cy="28" r="3" style="fill:#364f6b"/><circle cx="5" cy="16" r="3" style="fill:#364f6b"/><circle cx="5" cy="4" r="3" style="fill:#364f6b"/><path d="M29,29H13a1,1,0,0,1,0-2H29a1,1,0,0,1,0,2Z" style="fill:#364f6b"/><path d="M29,17H13a1,1,0,0,1,0-2H29a1,1,0,0,1,0,2Z" style="fill:#364f6b"/><path d="M29,5H13a1,1,0,0,1,0-2H29a1,1,0,0,1,0,2Z" style="fill:#364f6b"/></g></svg>