<svg xmlns="http://www.w3.org/2000/svg" viewBox="0 0 32 32"><title>login</title><g id="login"><rect width="32" height="32" style="fill:none"/><path d="M30.3164,5.0519l-12-4A1.0005,1.0005,0,0,0,17,2.0008v3H9a2.0019,2.0019,0,0,0-2,2v2.9994a1,1,0,0,0,2,0V7.0011h8V25H9V22a1,1,0,0,0-2,0v3a2.002,2.002,0,0,0,2,2h8V30a1.0007,1.0007,0,0,0,1.3164.9487l12-4A1,1,0,0,0,31,26V6.0006A1,1,0,0,0,30.3164,5.0519ZM24,17H22a1,1,0,1,1,0-2h2a1,1,0,1,1,0,2Z" style="fill:#364f6b"/><path d="M10.293,18.2931a1,1,0,0,0,1.414,1.414l3-3a1.004,1.004,0,0,0,0-1.4146l-3-2.9995a1,1,0,1,0-1.414,1.414L11.5859,15H2a1,1,0,1,0,0,2h9.5859Z" style="fill:#364f6b"/></g></svg>