<svg xmlns="http://www.w3.org/2000/svg" viewBox="0 0 32 32"><title>microphone disable</title><g id="microphone_disable" data-name="microphone disable"><rect width="32" height="32" style="fill:none"/><path d="M21,29H11a1,1,0,0,0,0,2H21a1,1,0,0,0,0-2Z" style="fill:#364f6b"/><path d="M26.707,25.293l-2.1521-2.1522A9.89,9.89,0,0,0,26,18V13a1,1,0,0,0-2,0v5a7.9144,7.9144,0,0,1-.9109,3.675l-.7407-.7407A6.9349,6.9349,0,0,0,23,18V8A6.9954,6.9954,0,0,0,9.02,7.6059L6.707,5.293A1,1,0,0,0,5.293,6.707l20,20a1,1,0,0,0,1.414-1.414Z" style="fill:#364f6b"/><path d="M21.8505,26.0927,20.42,24.6621A7.993,7.993,0,0,1,8,18V13a1,1,0,0,0-2,0v5a9.982,9.982,0,0,0,15.8505,8.0927Z" style="fill:#364f6b"/><path d="M16,25a6.9485,6.9485,0,0,0,3.6931-1.0647L9,13.2422V18A7.0081,7.0081,0,0,0,16,25Z" style="fill:#364f6b"/></g></svg>