<svg xmlns="http://www.w3.org/2000/svg" viewBox="0 0 32 32"><title>note</title><g id="note"><rect width="32" height="32" style="fill:none"/><path d="M28,1H8A3.0033,3.0033,0,0,0,5,4V7H6A1,1,0,0,1,6,9H5v6H6a1,1,0,0,1,0,2H5v6H6a1,1,0,0,1,0,2H5v3a3.0033,3.0033,0,0,0,3,3H28a3.0033,3.0033,0,0,0,3-3V4A3.0033,3.0033,0,0,0,28,1ZM25,25H13a1,1,0,0,1,0-2H25a1,1,0,0,1,0,2Zm0-8H13a1,1,0,0,1,0-2H25a1,1,0,0,1,0,2Zm0-8H13a1,1,0,0,1,0-2H25a1,1,0,0,1,0,2Z" style="fill:#364f6b"/><path d="M2,7A1,1,0,0,0,2,9H5V7Z" style="fill:#364f6b"/><path d="M2,15a1,1,0,0,0,0,2H5V15Z" style="fill:#364f6b"/><path d="M2,23a1,1,0,0,0,0,2H5V23Z" style="fill:#364f6b"/></g></svg>