<svg xmlns="http://www.w3.org/2000/svg" viewBox="0 0 32 32"><title>notification disable</title><g id="notification_disable" data-name="notification disable"><rect width="32" height="32" style="fill:none"/><path d="M16.7578,21H6a3,3,0,0,0,0,6h7.1843A2.9635,2.9635,0,0,0,13,28a3,3,0,0,0,6,0,2.9635,2.9635,0,0,0-.1843-1h3.9421Z" style="fill:#364f6b"/><path d="M29,24a3.0033,3.0033,0,0,0-3-3H22.4141l-2-2H26V15a10.0135,10.0135,0,0,0-9-9.9493V2a1,1,0,0,0-2,0V5.0556a9.954,9.954,0,0,0-5.85,2.68L6.707,5.293A1,1,0,0,0,5.293,6.707l21,21a.9994.9994,0,0,0,1.414,0,.9885.9885,0,0,0,.0685-1.3109A2.9665,2.9665,0,0,0,29,24Z" style="fill:#364f6b"/><path d="M6,15v4h8.7578l-7.944-7.944A9.9388,9.9388,0,0,0,6,15Z" style="fill:#364f6b"/></g></svg>