<svg xmlns="http://www.w3.org/2000/svg" viewBox="0 0 32 32"><title>paste</title><g id="paste"><rect width="32" height="32" style="fill:none"/><path d="M19.5,1h-7a3,3,0,0,0,0,6h7a3,3,0,0,0,0-6Z" style="fill:#364f6b"/><path d="M25,3h-.6011A5,5,0,0,1,19.5,9h-7A5,5,0,0,1,7.6011,3H7A3.0033,3.0033,0,0,0,4,6V28a3.0033,3.0033,0,0,0,3,3H25a3.0033,3.0033,0,0,0,3-3V6A3.0033,3.0033,0,0,0,25,3ZM22,27H10a1,1,0,0,1,0-2H22a1,1,0,0,1,0,2Zm0-6H10a1,1,0,0,1,0-2H22a1,1,0,0,1,0,2Zm0-6H10a1,1,0,0,1,0-2H22a1,1,0,0,1,0,2Z" style="fill:#364f6b"/></g></svg>