<svg xmlns="http://www.w3.org/2000/svg" viewBox="0 0 32 32"><title>print alt</title><g id="print_alt" data-name="print alt"><rect width="32" height="32" style="fill:none"/><path d="M23,17H9a1,1,0,0,0-1,1V29a2.0027,2.0027,0,0,0,2,2H22a2.0027,2.0027,0,0,0,2-2V18A1,1,0,0,0,23,17ZM19,28H13a1,1,0,0,1,0-2h6a1,1,0,0,1,0,2Zm0-5H13a1,1,0,0,1,0-2h6a1,1,0,0,1,0,2Z" style="fill:#364f6b"/><polygon points="20.042 1.628 20.042 5 23.414 5 20.042 1.628" style="fill:#364f6b"/><path d="M24,9V7H19.042a1,1,0,0,1-1-1V1H10A2.0027,2.0027,0,0,0,8,3V9Z" style="fill:#364f6b"/><path d="M29,11H3a2.0027,2.0027,0,0,0-2,2V26a1,1,0,0,0,1,1H6V18a3.0033,3.0033,0,0,1,3-3H23a3.0033,3.0033,0,0,1,3,3v9h4a1,1,0,0,0,1-1V13A2.0027,2.0027,0,0,0,29,11Z" style="fill:#364f6b"/></g></svg>