<svg xmlns="http://www.w3.org/2000/svg" viewBox="0 0 32 32"><title>print</title><g id="print"><rect width="32" height="32" style="fill:none"/><path d="M24,6V4a2.0027,2.0027,0,0,0-2-2H10A2.0023,2.0023,0,0,0,8,4V6Z" style="fill:#364f6b"/><path d="M29,8H3a2.0023,2.0023,0,0,0-2,2V22a2.0023,2.0023,0,0,0,2,2H6V15a3.0033,3.0033,0,0,1,3-3H23a3.0033,3.0033,0,0,1,3,3v9h3a2.0027,2.0027,0,0,0,2-2V10A2.0027,2.0027,0,0,0,29,8Z" style="fill:#364f6b"/><path d="M23,14H9a1,1,0,0,0-1,1V28a2.0023,2.0023,0,0,0,2,2H22a2.0027,2.0027,0,0,0,2-2V15A1,1,0,0,0,23,14ZM19,26H13a1,1,0,0,1,0-2h6a1,1,0,0,1,0,2Zm0-5H13a1,1,0,0,1,0-2h6a1,1,0,0,1,0,2Z" style="fill:#364f6b"/></g></svg>