<svg xmlns="http://www.w3.org/2000/svg" viewBox="0 0 32 32"><title>refresh</title><g id="refresh"><rect width="32" height="32" style="fill:none"/><path d="M17.7708,4.1162,18.8314,2.54a.984.984,0,0,0-.2774-1.3735,1.0045,1.0045,0,0,0-1.3868.2747l-2,2.9713a.9875.9875,0,0,0,0,1.0988l2,2.9713a1.0062,1.0062,0,0,0,1.3868.2747.984.984,0,0,0,.2774-1.3735l-.8288-1.2313a9.8809,9.8809,0,0,1,1.6335,18.9335.9876.9876,0,0,0-.5684,1.2831,1.0029,1.0029,0,0,0,1.295.5624A11.8507,11.8507,0,0,0,17.7708,4.1162Z" style="fill:#364f6b"/><path d="M14.2292,27.8838,13.1686,29.46a.984.984,0,0,0,.2774,1.3735,1.0045,1.0045,0,0,0,1.3868-.2747l2-2.9713a.9875.9875,0,0,0,0-1.0988l-2-2.9713a1.0062,1.0062,0,0,0-1.3868-.2747.984.984,0,0,0-.2774,1.3735l.8288,1.2313A9.8809,9.8809,0,0,1,12.3639,6.9136a.9876.9876,0,0,0,.5684-1.2831,1.0029,1.0029,0,0,0-1.295-.5624,11.8507,11.8507,0,0,0,2.5919,22.8157Z" style="fill:#364f6b"/></g></svg>