<svg xmlns="http://www.w3.org/2000/svg" viewBox="0 0 32 32"><title>reply all</title><g id="reply_all" data-name="reply all"><rect width="32" height="32" style="fill:none"/><path d="M28,12.0015H17v-4a1,1,0,0,0-1.707-.7069l-8,7.9991a.9993.9993,0,0,0,0,1.4139l8,7.9991A1.0014,1.0014,0,0,0,17,24v-4h7.7227l4.7627,2.8571A1.001,1.001,0,0,0,31,22V15.0012A3.0031,3.0031,0,0,0,28,12.0015Z" style="fill:#364f6b"/><path d="M3.4141,16,10.707,8.7071A1,1,0,1,0,9.293,7.293l-8,8a1,1,0,0,0,0,1.4141l8,8a1,1,0,1,0,1.414-1.4141Z" style="fill:#364f6b"/></g></svg>