<svg xmlns="http://www.w3.org/2000/svg" viewBox="0 0 32 32"><title>screenshot</title><g id="screenshot"><rect width="32" height="32" style="fill:none"/><path d="M2,7A1,1,0,0,1,1,6V2A1,1,0,0,1,2,1H6A1,1,0,0,1,6,3H3V6A1,1,0,0,1,2,7Z" style="fill:#364f6b"/><path d="M30,7a1,1,0,0,1-1-1V3H26a1,1,0,0,1,0-2h4a1,1,0,0,1,1,1V6A1,1,0,0,1,30,7Z" style="fill:#364f6b"/><path d="M6,31H2a1,1,0,0,1-1-1V26a1,1,0,0,1,2,0v3H6a1,1,0,0,1,0,2Z" style="fill:#364f6b"/><path d="M30,31H26a1,1,0,0,1,0-2h3V26a1,1,0,0,1,2,0v4A1,1,0,0,1,30,31Z" style="fill:#364f6b"/><circle cx="16" cy="16" r="9" style="fill:#364f6b"/></g></svg>