<svg xmlns="http://www.w3.org/2000/svg" viewBox="0 0 32 32"><title>search cross</title><g id="search_cross" data-name="search cross"><rect width="32" height="32" style="fill:none"/><path d="M30.7071,28.2932l-8.9994-8.9993a1,1,0,0,0-.7069-.293h-.5859L18.744,17.33a9.9988,9.9988,0,1,0-1.414,1.414l1.6709,1.6709v.5859a1,1,0,0,0,.293.7069l8.9993,8.9994a1,1,0,0,0,1.4139,0l1-1A1,1,0,0,0,30.7071,28.2932ZM14.7083,13.2943a1,1,0,1,1-1.414,1.414l-2.2928-2.2928L8.7087,14.7083a1,1,0,0,1-1.4139-1.414l2.2928-2.2928L7.2948,8.7087A1,1,0,0,1,8.7087,7.2948l2.2928,2.2928,2.2928-2.2928a1,1,0,0,1,1.414,1.4139l-2.2928,2.2928Z" style="fill:#364f6b"/></g></svg>