<svg xmlns="http://www.w3.org/2000/svg" viewBox="0 0 32 32"><title>search plus alt</title><g id="search_plus_alt" data-name="search plus alt"><rect width="32" height="32" style="fill:none"/><path d="M30.707,29.2928,23.5692,22.155c-.2178.2512-.4327.5043-.6714.743s-.49.4544-.7417.6726l7.1365,7.1366a1,1,0,0,0,1.4144-1.4144Z" style="fill:#364f6b"/><path d="M21.4835,4.51a12.0025,12.0025,0,1,0,0,16.9741A12.0164,12.0164,0,0,0,21.4835,4.51Zm-4.4863,9.4873H13.9966v3.0006a1,1,0,0,1-2,0V13.9968H8.9956a1,1,0,0,1,0-2h3.0006V8.9958a1,1,0,0,1,2,0v3.0006h3.0006a1,1,0,1,1,0,2Z" style="fill:#364f6b"/></g></svg>