<svg xmlns="http://www.w3.org/2000/svg" viewBox="0 0 32 32"><title>search plus</title><g id="search_plus" data-name="search plus"><rect width="32" height="32" style="fill:none"/><path d="M30.7071,28.2932l-8.9994-8.9993a.9989.9989,0,0,0-.7069-.293h-.5859l-1.6716-1.6716A9.9925,9.9925,0,1,0,17.33,18.7442l1.6707,1.6707v.5859a1,1,0,0,0,.293.7069l8.9993,8.9994a1,1,0,0,0,1.4139,0l1-1A1,1,0,0,0,30.7071,28.2932ZM15.0012,12.0015h-3v3a1,1,0,1,1-2,0v-3h-3a1,1,0,0,1,0-2h3v-3a1,1,0,0,1,2,0v3h3a1,1,0,1,1,0,2Z" style="fill:#364f6b"/></g></svg>