<svg xmlns="http://www.w3.org/2000/svg" viewBox="0 0 32 32"><title>search check alt</title><g id="search_check_alt" data-name="search check alt"><rect width="32" height="32" style="fill:none"/><path d="M21.4836,4.51a12.0024,12.0024,0,1,0,0,16.9739A12.0162,12.0162,0,0,0,21.4836,4.51Zm-4.7792,7.1937-4.0008,4.0008a1,1,0,0,1-1.4143,0l-2-2A1,1,0,1,1,10.7032,12.29l1.2932,1.2932L15.29,10.2891a1,1,0,1,1,1.4144,1.4143Z" style="fill:#364f6b"/><path d="M30.707,29.2926,23.5693,22.155c-.2178.2512-.4327.5042-.6714.7429s-.49.4544-.7417.6726l7.1364,7.1365a1,1,0,0,0,1.4144-1.4144Z" style="fill:#364f6b"/></g></svg>