<svg xmlns="http://www.w3.org/2000/svg" viewBox="0 0 32 32"><title>search minus</title><g id="search_minus" data-name="search minus"><rect width="32" height="32" style="fill:none"/><path d="M30.707,28.2932l-9.0013-8.9993a.9993.9993,0,0,0-.7071-.293h-.586l-1.672-1.6716a9.9957,9.9957,0,1,0-1.4133,1.4149l1.671,1.6707v.5859a1,1,0,0,0,.293.7069l9.0013,8.9994a1,1,0,0,0,1.4143,0l1-1A.9993.9993,0,0,0,30.707,28.2932ZM14.9978,12.0014H6.9967a1,1,0,1,1,0-2h8.0011a1,1,0,1,1,0,2Z" style="fill:#364f6b"/></g></svg>