<svg xmlns="http://www.w3.org/2000/svg" viewBox="0 0 32 32"><title>search check</title><g id="search_check" data-name="search check"><rect width="32" height="32" style="fill:none"/><path d="M30.707,28.2932l-9.0013-8.9993a.9993.9993,0,0,0-.7071-.293h-.586l-1.672-1.6716a9.9957,9.9957,0,1,0-1.4133,1.4149l1.671,1.6707v.5859a1,1,0,0,0,.293.7069l9.0013,8.9994a1,1,0,0,0,1.4143,0l1-1A.9993.9993,0,0,0,30.707,28.2932ZM14.7048,9.7086l-4.0006,4a1,1,0,0,1-1.4142,0l-2-2a1,1,0,0,1,1.4142-1.414l1.2932,1.2929,3.2934-3.2927a1,1,0,0,1,1.4143,1.4139Z" style="fill:#364f6b"/></g></svg>