<svg xmlns="http://www.w3.org/2000/svg" viewBox="0 0 32 32"><title>search cross alt</title><g id="search_cross_alt" data-name="search cross alt"><rect width="32" height="32" style="fill:none"/><path d="M30.707,29.2928,23.5691,22.155c-.2178.2512-.4326.5043-.6713.743s-.49.4544-.7417.6727l7.1365,7.1365a1,1,0,0,0,1.4144-1.4144Z" style="fill:#364f6b"/><path d="M21.4835,4.51a12.0025,12.0025,0,1,0,0,16.9741A12.0164,12.0164,0,0,0,21.4835,4.51ZM16.7042,15.29A1,1,0,1,1,15.29,16.7044l-2.2934-2.2935L10.703,16.7044A1,1,0,1,1,9.2886,15.29l2.2935-2.2934L9.2886,10.7032A1,1,0,1,1,10.703,9.2888l2.2934,2.2934L15.29,9.2888a1,1,0,0,1,1.4144,1.4144l-2.2934,2.2934Z" style="fill:#364f6b"/></g></svg>