<svg xmlns="http://www.w3.org/2000/svg" viewBox="0 0 32 32"><title>share</title><g id="share"><rect width="32" height="32" style="fill:none"/><circle cx="24" cy="16" r="7" style="fill:#364f6b"/><path d="M6,11A4.9745,4.9745,0,0,0,9.9242,9.0609l6.1291,2.7241A9.0292,9.0292,0,0,1,17.2107,10.11l-6.394-2.8417A4.9369,4.9369,0,0,0,11,6a5,5,0,1,0-5,5Z" style="fill:#364f6b"/><path d="M16.0533,20.215,9.9242,22.9391A4.9721,4.9721,0,1,0,11,26a4.9369,4.9369,0,0,0-.1833-1.2684l6.394-2.8417A9.0292,9.0292,0,0,1,16.0533,20.215Z" style="fill:#364f6b"/></g></svg>