<svg xmlns="http://www.w3.org/2000/svg" viewBox="0 0 32 32"><title>snooze</title><g id="snooze"><rect width="32" height="32" style="fill:none"/><path d="M28.707,10.293l-4-4a1,1,0,0,0-1.414,1.414l4,4a1,1,0,0,0,1.414-1.414Z" style="fill:#364f6b"/><path d="M4.707,11.707l4-4A1,1,0,0,0,7.293,6.293l-4,4a1,1,0,0,0,1.414,1.414Z" style="fill:#364f6b"/><path d="M19.1519,7.434A3.961,3.961,0,0,0,20,5a4,4,0,0,0-8,0,3.961,3.961,0,0,0,.8481,2.434,12,12,0,1,0,6.3038,0ZM14,5a2,2,0,1,1,2,2A2.0027,2.0027,0,0,1,14,5Zm5,18H13a1.0007,1.0007,0,0,1-.707-1.707L16.5859,17H13a1,1,0,0,1,0-2h6a1.0007,1.0007,0,0,1,.707,1.707L15.4141,21H19a1,1,0,0,1,0,2Z" style="fill:#364f6b"/></g></svg>