<svg xmlns="http://www.w3.org/2000/svg" viewBox="0 0 32 32"><title>stars</title><g id="stars"><rect width="32" height="32" style="fill:none"/><path d="M8,16a1,1,0,0,0,2,0,6.0066,6.0066,0,0,1,6-6,1,1,0,0,0,0-2,6.0066,6.0066,0,0,1-6-6A1,1,0,0,0,8,2,6.0066,6.0066,0,0,1,2,8a1,1,0,0,0,0,2A6.0066,6.0066,0,0,1,8,16Z" style="fill:#364f6b"/><path d="M30,13a6.0066,6.0066,0,0,1-6-6,1,1,0,0,0-2,0,6.0066,6.0066,0,0,1-6,6,1,1,0,0,0,0,2,6.0066,6.0066,0,0,1,6,6,1,1,0,0,0,2,0,6.0066,6.0066,0,0,1,6-6,1,1,0,0,0,0-2Z" style="fill:#364f6b"/><path d="M19,23a5.0059,5.0059,0,0,1-5-5,1,1,0,0,0-2,0,5.0059,5.0059,0,0,1-5,5,1,1,0,0,0,0,2,5.0059,5.0059,0,0,1,5,5,1,1,0,0,0,2,0,5.0059,5.0059,0,0,1,5-5,1,1,0,0,0,0-2Z" style="fill:#364f6b"/></g></svg>