<svg xmlns="http://www.w3.org/2000/svg" viewBox="0 0 32 32"><title>sync</title><g id="sync"><rect width="32" height="32" style="fill:none"/><rect x="19" y="15" width="12" height="16" rx="1" ry="1" style="fill:#364f6b"/><rect x="1" y="1" width="12" height="16" rx="1" ry="1" style="fill:#364f6b"/><path d="M16,29H7a1.0009,1.0009,0,0,1-1-1V22.4141L7.293,23.707a1,1,0,0,0,1.414-1.414L5.7077,19.2936a1.0038,1.0038,0,0,0-1.4154,0L1.293,22.293a1,1,0,0,0,1.414,1.414L4,22.4141V28a3.0033,3.0033,0,0,0,3,3h9a1,1,0,0,0,0-2Z" style="fill:#364f6b"/><path d="M16,3h9a1.0009,1.0009,0,0,1,1,1V9.5859L24.707,8.293a1,1,0,0,0-1.414,1.414l2.9993,2.9994a1.0022,1.0022,0,0,0,1.4154,0L30.707,9.707a1,1,0,0,0-1.414-1.414L28,9.5859V4a3.0033,3.0033,0,0,0-3-3H16a1,1,0,0,0,0,2Z" style="fill:#364f6b"/></g></svg>