<svg xmlns="http://www.w3.org/2000/svg" viewBox="0 0 32 32"><title>task</title><g id="task"><rect width="32" height="32" style="fill:none"/><rect x="1" y="4" width="10" height="10" rx="1" ry="1" style="fill:#364f6b"/><path d="M30,6H16a1,1,0,0,1,0-2H30a1,1,0,0,1,0,2Z" style="fill:#364f6b"/><path d="M26,12H16a1,1,0,0,1,0-2H26a1,1,0,0,1,0,2Z" style="fill:#364f6b"/><rect x="1" y="18" width="10" height="10" rx="1" ry="1" style="fill:#364f6b"/><path d="M30,20H16a1,1,0,0,1,0-2H30a1,1,0,0,1,0,2Z" style="fill:#364f6b"/><path d="M26,26H16a1,1,0,0,1,0-2H26a1,1,0,0,1,0,2Z" style="fill:#364f6b"/></g></svg>