<svg xmlns="http://www.w3.org/2000/svg" viewBox="0 0 32 32"><title>trash full</title><g id="trash_full" data-name="trash full"><rect width="32" height="32" style="fill:none"/><path d="M30,7H2A1,1,0,0,0,2,9H4.153L7.68,30.1641A1,1,0,0,0,8.6665,31h14.667a1,1,0,0,0,.9863-.8359L27.847,9H30a1,1,0,0,0,0-2ZM14,24a1,1,0,0,1-2,0V14a1,1,0,0,1,2,0Zm6,0a1,1,0,0,1-2,0V14a1,1,0,0,1,2,0Z" style="fill:#364f6b"/><path d="M19.707,1.293a.9994.9994,0,0,0-1.414,0L16,3.5859,13.707,1.293a.9994.9994,0,0,0-1.414,0L8.5859,5H23.4141Z" style="fill:#364f6b"/></g></svg>