<svg xmlns="http://www.w3.org/2000/svg" viewBox="0 0 32 32"><title>trash empty</title><g id="trash_empty" data-name="trash empty"><rect width="32" height="32" style="fill:none"/><path d="M30,7H22V4a3.0033,3.0033,0,0,0-3-3H13a3.0033,3.0033,0,0,0-3,3V7H2A1,1,0,0,0,2,9H30a1,1,0,0,0,0-2ZM12,7V4a1.0006,1.0006,0,0,1,1-1h6a1.0006,1.0006,0,0,1,1,1V7Z" style="fill:#364f6b"/><path d="M7.6807,30.1641A.9993.9993,0,0,0,8.667,31H23.333a.9993.9993,0,0,0,.9863-.8359L27.5136,11H4.4864ZM18,16a1,1,0,0,1,2,0V26a1,1,0,0,1-2,0Zm-6,0a1,1,0,0,1,2,0V26a1,1,0,0,1-2,0Z" style="fill:#364f6b"/></g></svg>