<svg xmlns="http://www.w3.org/2000/svg" viewBox="0 0 32 32"><title>trash</title><g id="trash"><rect width="32" height="32" style="fill:none"/><path d="M30,7H26.72L25.1768,2.3682A1.9974,1.9974,0,0,0,23.2793,1H8.7207A1.9981,1.9981,0,0,0,6.8232,2.3672L5.2791,7H2A1,1,0,0,0,2,9H30a1,1,0,0,0,0-2Z" style="fill:#364f6b"/><path d="M7.8911,29.271A2.0084,2.0084,0,0,0,9.873,31H22.127a2.0079,2.0079,0,0,0,1.9824-1.73L26.6006,11H5.4ZM18,14a1,1,0,0,1,2,0V28a1,1,0,0,1-2,0Zm-6,0a1,1,0,0,1,2,0V28a1,1,0,0,1-2,0Z" style="fill:#364f6b"/></g></svg>