<svg xmlns="http://www.w3.org/2000/svg" viewBox="0 0 32 32"><title>umbrella</title><g id="umbrella"><rect width="32" height="32" style="fill:none"/><path d="M17,3.0507V2a1,1,0,0,0-2,0V3.0507A13.009,13.009,0,0,0,3,16a1,1,0,0,0,2,0c0-1.084,1.374-2,3-2s3,.916,3,2a1,1,0,0,0,2,0c0-.8505.85-1.59,2-1.8728V27.5a1.5,1.5,0,0,1-3,0V26a1,1,0,0,0-2,0v1.5a3.5,3.5,0,0,0,7,0V14.1272C18.15,14.41,19,15.15,19,16a1,1,0,0,0,2,0c0-1.084,1.374-2,3-2s3,.916,3,2a1,1,0,0,0,2,0A13.009,13.009,0,0,0,17,3.0507Z" style="fill:#364f6b"/></g></svg>