<svg xmlns="http://www.w3.org/2000/svg" viewBox="0 0 32 32"><title>unlock</title><g id="unlock"><rect width="32" height="32" style="fill:none"/><path d="M25,13H9V9.8877A6.8956,6.8956,0,0,1,15.8882,3h.2236A6.8956,6.8956,0,0,1,23,9.8877V10a1,1,0,0,0,2,0V9.8877A8.8983,8.8983,0,0,0,16.1118,1h-.2236A8.8983,8.8983,0,0,0,7,9.8877V13a3.0033,3.0033,0,0,0-3,3V28a3.0033,3.0033,0,0,0,3,3H25a3.0033,3.0033,0,0,0,3-3V16A3.0033,3.0033,0,0,0,25,13ZM17,23.4827V26a1,1,0,0,1-2,0V23.4827a3,3,0,1,1,2,0Z" style="fill:#364f6b"/></g></svg>