<svg xmlns="http://www.w3.org/2000/svg" viewBox="0 0 32 32"><title>upload queue</title><g id="upload_queue" data-name="upload queue"><rect width="32" height="32" style="fill:none"/><path d="M7.293,8.7064,6,7.4133V13a1,1,0,1,1-2,0V7.4133L2.707,8.7064A1,1,0,0,1,1.293,7.2922l2.9993-3a1.0023,1.0023,0,0,1,1.4154,0l2.9993,3A1,1,0,0,1,7.293,8.7064Z" style="fill:#364f6b"/><path d="M30,10H13a1,1,0,0,1,0-2H30a1,1,0,0,1,0,2Z" style="fill:#364f6b"/><path d="M7.293,22.7064,6,21.4133V27a1,1,0,1,1-2,0V21.4133L2.707,22.7064a1,1,0,0,1-1.414-1.4142l2.9993-3a1.0023,1.0023,0,0,1,1.4154,0l2.9993,3a1,1,0,0,1-1.414,1.4142Z" style="fill:#364f6b"/><path d="M13,22H30a1,1,0,0,1,0,2H13a1,1,0,0,1,0-2Z" style="fill:#364f6b"/></g></svg>