<svg xmlns="http://www.w3.org/2000/svg" viewBox="0 0 32 32"><title>user alt</title><g id="user_alt" data-name="user alt"><rect width="32" height="32" style="fill:none"/><path d="M22.5908,20.5352a10.0442,10.0442,0,0,1-13.1816,0C5.5808,22.4515,3,25.9713,3,30a1,1,0,0,0,1,1H28a1,1,0,0,0,1-1C29,25.9713,26.4192,22.4515,22.5908,20.5352Z" style="fill:#364f6b"/><path d="M24.334,7.5684A8.97,8.97,0,0,0,16,1,8.97,8.97,0,0,0,7.666,7.5684a4.3672,4.3672,0,0,0,0,6.8632A8.97,8.97,0,0,0,16,21a8.97,8.97,0,0,0,8.334-6.5684,4.3672,4.3672,0,0,0,0-6.8632Z" style="fill:#364f6b"/></g></svg>