<svg xmlns="http://www.w3.org/2000/svg" viewBox="0 0 32 32"><title>verification</title><g id="verification"><rect width="32" height="32" style="fill:none"/><path d="M29,1H3A2.0022,2.0022,0,0,0,1,3V29.9991a1,1,0,0,0,1.4961.8681L9,27.1505l6.5039,3.7167a.9992.9992,0,0,0,.9922,0L23,27.1505l6.5039,3.7167A1.0009,1.0009,0,0,0,31,29.9991V3A2.0026,2.0026,0,0,0,29,1ZM23.6641,11.7467l-9,8a.9991.9991,0,0,1-1.3716-.04l-5-5a1,1,0,0,1,1.414-1.414l4.3335,4.3329,8.2954-7.3729a1,1,0,1,1,1.3282,1.4941Z" style="fill:#364f6b"/></g></svg>