<svg xmlns="http://www.w3.org/2000/svg" viewBox="0 0 32 32"><title>verification fail</title><g id="verification_fail" data-name="verification fail"><rect width="32" height="32" style="fill:none"/><path d="M29,1H3A2.0026,2.0026,0,0,0,1,3V29.999a1.0009,1.0009,0,0,0,1.4961.8681L9,27.15l6.5039,3.7167a.9992.9992,0,0,0,.9922,0L23,27.15l6.5039,3.7167A1.0008,1.0008,0,0,0,31,29.999V3A2.0026,2.0026,0,0,0,29,1ZM22.707,19.2923a1,1,0,0,1-1.414,1.414L16,15.4136l-5.293,5.2927a1,1,0,0,1-1.414-1.414L14.5859,14,9.293,8.7068a1,1,0,0,1,1.414-1.4141L16,12.5855l5.293-5.2928a1,1,0,0,1,1.414,1.4141L17.4141,14Z" style="fill:#364f6b"/></g></svg>