<svg xmlns="http://www.w3.org/2000/svg" viewBox="0 0 32 32"><title>ambulance</title><g id="ambulance_" data-name="ambulance"><rect width="32" height="32" style="fill:none"/><circle cx="9" cy="25" r="3" style="fill:#364f6b"/><circle cx="23" cy="25" r="3" style="fill:#364f6b"/><path d="M30.4922,12.9453,25.4243,5.3389A2.9808,2.9808,0,0,0,22.93,4H4A3.0033,3.0033,0,0,0,1,7V22a3.0033,3.0033,0,0,0,3,3,5,5,0,0,1,10,0h4a5,5,0,0,1,10,0,3.0033,3.0033,0,0,0,3-3V14.61A2.9751,2.9751,0,0,0,30.4922,12.9453ZM15,14H13v2H9V14H7V10H9V8h4v2h2Z" style="fill:#364f6b"/></g></svg>