<svg xmlns="http://www.w3.org/2000/svg" viewBox="0 0 32 32"><title>bandage</title><g id="bandage"><rect width="32" height="32" style="fill:none"/><path d="M21,1H11A3.0033,3.0033,0,0,0,8,4V28a3.0033,3.0033,0,0,0,3,3H21a3.0033,3.0033,0,0,0,3-3V4A3.0033,3.0033,0,0,0,21,1ZM16,6a1,1,0,1,1-1,1A1,1,0,0,1,16,6ZM13,4a1,1,0,1,1-1,1A1,1,0,0,1,13,4Zm0,25a1,1,0,1,1,1-1A1,1,0,0,1,13,29Zm3-3a1,1,0,1,1,1-1A1,1,0,0,1,16,26Zm3,2a1,1,0,1,1,1-1A1,1,0,0,1,19,28Zm1-7a1,1,0,0,1-1,1H13a1,1,0,0,1-1-1V11a1,1,0,0,1,1-1h6a1,1,0,0,1,1,1ZM19,5a1,1,0,1,1,1-1A1,1,0,0,1,19,5Z" style="fill:#364f6b"/></g></svg>