<svg xmlns="http://www.w3.org/2000/svg" viewBox="0 0 32 32"><title>blood transfusion</title><g id="blood_transfusion" data-name="blood transfusion"><rect width="32" height="32" style="fill:none"/><path d="M30,5H7V2A1,1,0,0,0,5,2V5H2A1,1,0,0,0,2,7H5V30a1,1,0,0,0,2,0V7H24V9H23a3.0033,3.0033,0,0,0-3,3v1.6461a8.0293,8.0293,0,0,1,4.1123.5678,2.1047,2.1047,0,0,0,1.7744,0A8.0126,8.0126,0,0,1,30,13.6461V12a3.0033,3.0033,0,0,0-3-3H26V7h4a1,1,0,0,0,0-2Z" style="fill:#364f6b"/><path d="M26.6289,16.0713a4.08,4.08,0,0,1-3.2578,0A6.1868,6.1868,0,0,0,20,15.6507V17.777a5.2632,5.2632,0,0,0,3,4.7724V24a1,1,0,0,0,1,1v5a1,1,0,0,0,2,0V25a1,1,0,0,0,1-1V22.5777A5.004,5.004,0,0,0,30,18V15.6507A6.1868,6.1868,0,0,0,26.6289,16.0713Z" style="fill:#364f6b"/></g></svg>