<svg xmlns="http://www.w3.org/2000/svg" viewBox="0 0 32 32"><title>blood</title><g id="blood"><rect width="32" height="32" style="fill:none"/><path d="M22.7441,5.332a1.0316,1.0316,0,0,0-1.4882,0C20.9189,5.708,13,14.6172,13,22a9,9,0,0,0,18,0C31,14.6172,23.0811,5.708,22.7441,5.332ZM24.5,22.5H23V24a1,1,0,0,1-2,0V22.5H19.5a1,1,0,0,1,0-2H21V19a1,1,0,0,1,2,0v1.5h1.5a1,1,0,0,1,0,2Z" style="fill:#364f6b"/><path d="M7.5811,1.1865a.9975.9975,0,0,0-1.1622,0C6.1973,1.3442,1,5.1245,1,11a6,6,0,0,0,12,0C13,5.1245,7.8027,1.3442,7.5811,1.1865Z" style="fill:#364f6b"/></g></svg>