<svg xmlns="http://www.w3.org/2000/svg" viewBox="0 0 32 32"><title>blood donation</title><g id="blood_donation" data-name="blood donation"><rect width="32" height="32" style="fill:none"/><path d="M30.625,21.2192l-4.6377-3.71a3.01,3.01,0,0,0-1.2236-.586L18.34,15.4956a3.2325,3.2325,0,0,0-2.16,6.04l-3.1162.4454-8.2871-2.26a2.9906,2.9906,0,0,0-1.8086,5.6958l9.251,3.3638a3.0225,3.0225,0,0,0,1.3564.1616l8.06-.895a.9825.9825,0,0,1,.4619.0576l7.5517,2.832A1.0007,1.0007,0,0,0,31,30V22A.999.999,0,0,0,30.625,21.2192Z" style="fill:#364f6b"/><path d="M9,17a6.0066,6.0066,0,0,0,6-6c0-5.8755-5.1973-9.6558-5.4189-9.8135a.9975.9975,0,0,0-1.1622,0C8.1973,1.3442,3,5.1245,3,11A6.0066,6.0066,0,0,0,9,17ZM7,10H8V9a1,1,0,0,1,2,0v1h1a1,1,0,0,1,0,2H10v1a1,1,0,0,1-2,0V12H7a1,1,0,0,1,0-2Z" style="fill:#364f6b"/></g></svg>