<svg xmlns="http://www.w3.org/2000/svg" viewBox="0 0 32 32"><title>bones</title><g id="bones"><rect width="32" height="32" style="fill:none"/><path d="M25.33,12.9527a4.4324,4.4324,0,0,0,4.3639-7.3978,4.37,4.37,0,0,0-2.08-1.1694,4.3679,4.3679,0,0,0-1.167-2.0776,4.4327,4.4327,0,0,0-7.4,4.3618L17.4141,8.3024l6.283,6.2832Z" style="fill:#364f6b"/><path d="M6.67,19.0473a4.4324,4.4324,0,0,0-4.3639,7.3978,4.37,4.37,0,0,0,2.08,1.1694,4.3679,4.3679,0,0,0,1.167,2.0776,4.4327,4.4327,0,0,0,7.4-4.3618l1.6325-1.6327-6.283-6.2832Z" style="fill:#364f6b"/><path d="M29.6939,20.162a4.4353,4.4353,0,0,0-4.364-1.1147L12.9533,6.67A4.4326,4.4326,0,0,0,5.5554,2.3055a4.3709,4.3709,0,0,0-1.1693,2.08,4.3655,4.3655,0,0,0-2.0775,1.167,4.4324,4.4324,0,0,0,4.3615,7.4L19.0467,25.33a4.4326,4.4326,0,0,0,7.3979,4.3642,4.3709,4.3709,0,0,0,1.1693-2.08,4.3655,4.3655,0,0,0,2.0775-1.167A4.4313,4.4313,0,0,0,29.6939,20.162Z" style="fill:#364f6b"/></g></svg>