<svg xmlns="http://www.w3.org/2000/svg" viewBox="0 0 32 32"><title>bone</title><g id="bone"><rect width="32" height="32" style="fill:none"/><path d="M14,15a3.96,3.96,0,0,0,2-.5454A3.96,3.96,0,0,0,18,15a3.9918,3.9918,0,0,0,2-7.4512V2a1,1,0,0,0-1-1H13a1,1,0,0,0-1,1V7.5488A3.9918,3.9918,0,0,0,14,15Z" style="fill:#364f6b"/><path d="M20,17a3.96,3.96,0,0,0-2,.5454,4.0221,4.0221,0,0,0-4,0A3.96,3.96,0,0,0,12,17a4,4,0,0,0,0,8v5a1,1,0,0,0,1,1h6a1,1,0,0,0,1-1V25a4,4,0,0,0,0-8Z" style="fill:#364f6b"/></g></svg>