<svg xmlns="http://www.w3.org/2000/svg" viewBox="0 0 32 32"><title>brain</title><g id="brain"><rect width="32" height="32" style="fill:none"/><path d="M12,23v2a1,1,0,0,1-2,0V22.858A3.9963,3.9963,0,0,1,7,19a1,1,0,0,1,2,0,2.002,2.002,0,0,0,2,2h4V2.0282A4.9148,4.9148,0,0,0,12,1C6.6879,1,2.2438,6.1617,1.2217,13H7V11a3.0033,3.0033,0,0,1,3-3,1,1,0,0,1,0,2,1.0013,1.0013,0,0,0-1,1v2h1a3.0033,3.0033,0,0,1,3,3,1,1,0,0,1-2,0,1.0013,1.0013,0,0,0-1-1H1.0372C1.021,15.332,1,15.6625,1,16c0,8.271,4.9346,15,11,15a4.9148,4.9148,0,0,0,3-1.0282V23Z" style="fill:#364f6b"/><path d="M20,15a1,1,0,0,1,1,1,1.0009,1.0009,0,0,0,1,1h8.9628c.0162-.332.0372-.6625.0372-1C31,7.729,26.0654,1,20,1a4.9148,4.9148,0,0,0-3,1.0282V9h3V7a1,1,0,0,1,2,0V9.142A3.996,3.996,0,0,1,25,13a1,1,0,0,1-2,0,2.0023,2.0023,0,0,0-2-2H17V29.9718A4.9148,4.9148,0,0,0,20,31c5.3121,0,9.7562-5.1617,10.7783-12H25v2a3.0033,3.0033,0,0,1-3,3,1,1,0,0,1,0-2,1.0009,1.0009,0,0,0,1-1V19H22a3.0033,3.0033,0,0,1-3-3A1,1,0,0,1,20,15Z" style="fill:#364f6b"/></g></svg>