<svg xmlns="http://www.w3.org/2000/svg" viewBox="0 0 32 32"><title>cardiogram</title><g id="cardiogram"><rect width="32" height="32" style="fill:none"/><path d="M18.8574,16.5146A.9994.9994,0,0,1,18,17c-.0264,0-.0527-.001-.08-.0034a1,1,0,0,1-.8486-.625L13.82,8.2432l-1.9629,3.2714A.999.999,0,0,1,11,12H1v9H31V12H21.5664Z" style="fill:#364f6b"/><path d="M13.1426,5.4854a.9835.9835,0,0,1,.9375-.482,1,1,0,0,1,.8486.625l3.251,8.1284,1.9629-3.2714A.999.999,0,0,1,21,10H31V4a3,3,0,0,0-3-3H4A3,3,0,0,0,1,4v6h9.4336Z" style="fill:#364f6b"/><path d="M1,23v5a3.0033,3.0033,0,0,0,3,3H28a3.0033,3.0033,0,0,0,3-3V23Zm6,5a1,1,0,1,1,1-1A1,1,0,0,1,7,28Zm4,0a1,1,0,1,1,1-1A1,1,0,0,1,11,28Zm14,0H21a1,1,0,0,1,0-2h4a1,1,0,0,1,0,2Z" style="fill:#364f6b"/></g></svg>