<svg xmlns="http://www.w3.org/2000/svg" viewBox="0 0 32 32"><title>dna</title><g id="dna"><rect width="32" height="32" style="fill:none"/><path d="M23,16c0-3.4338-2.4521-5.4021-5.0458-7C20.5479,7.4021,23,5.4338,23,2a1,1,0,0,0-2,0,4.3953,4.3953,0,0,1-.114,1H11.114A4.3953,4.3953,0,0,1,11,2,1,1,0,0,0,9,2c0,3.4338,2.4521,5.4021,5.0458,7C11.4521,10.5979,9,12.5662,9,16s2.4521,5.4021,5.0458,7C11.4521,24.5979,9,26.5662,9,30a1,1,0,0,0,2,0,4.3953,4.3953,0,0,1,.114-1h9.772A4.3953,4.3953,0,0,1,21,30a1,1,0,0,0,2,0c0-3.4338-2.4521-5.4021-5.0458-7C20.5479,21.4021,23,19.4338,23,16ZM11,16a4.3953,4.3953,0,0,1,.114-1h9.772a4.443,4.443,0,0,1,0,2H11.114A4.3953,4.3953,0,0,1,11,16ZM12.1729,5h7.6542A15.1274,15.1274,0,0,1,16,7.8416,15.1274,15.1274,0,0,1,12.1729,5ZM16,10.1584A15.1274,15.1274,0,0,1,19.8271,13H12.1729A15.1274,15.1274,0,0,1,16,10.1584ZM19.8271,27H12.1729A15.1274,15.1274,0,0,1,16,24.1584,15.1274,15.1274,0,0,1,19.8271,27ZM16,21.8416A15.1274,15.1274,0,0,1,12.1729,19h7.6542A15.1274,15.1274,0,0,1,16,21.8416Z" style="fill:#364f6b"/></g></svg>