<svg xmlns="http://www.w3.org/2000/svg" viewBox="0 0 32 32"><title>enema</title><g id="enema"><rect width="32" height="32" style="fill:none"/><path d="M24.9974,9.0054c.0082.0126.0149.0257.0231.0383.0006-.0195.0024-.0357.0029-.0552Z" style="fill:#364f6b"/><path d="M15.9927,14.5c5.5678-.0137,6.8872-.2183,7.0283-5.5088L23.0892,6.44a24.5226,24.5226,0,0,0-6.6361-5.3317,1.0014,1.0014,0,0,0-.9062,0C15.0752,1.3481,4,7.1143,4,19c0,.3693.0226.7332.0554,1.0941C6.4125,14.5444,12.2662,14.5091,15.9927,14.5Z" style="fill:#364f6b"/><path d="M25.0205,9.0437c-.19,7.125-3.3109,7.4417-9.022,7.4558-4.4248.0112-9.9311.0249-10.8506,7.2285a1.0032,1.0032,0,0,0,.0953.5689A11.9933,11.9933,0,0,0,28,19,18.133,18.133,0,0,0,25.0205,9.0437Z" style="fill:#364f6b"/></g></svg>