<svg xmlns="http://www.w3.org/2000/svg" viewBox="0 0 32 32"><title>eye chart</title><g id="eye_chart" data-name="eye chart"><rect width="32" height="32" style="fill:none"/><path d="M24,1H8A3.0033,3.0033,0,0,0,5,4V28a3.0033,3.0033,0,0,0,3,3H24a3.0033,3.0033,0,0,0,3-3V4A3.0033,3.0033,0,0,0,24,1ZM12,6a1,1,0,0,1,1-1h6a1,1,0,0,1,0,2H14V9h3a1,1,0,0,1,0,2H14v2h5a1,1,0,0,1,0,2H13a1,1,0,0,1-1-1Zm2,16H12v1h1a1,1,0,0,1,0,2H12v1a1,1,0,0,1-2,0V21a1,1,0,0,1,1-1h3a1,1,0,0,1,0,2Zm5.5,3H19v1a1,1,0,0,1-2,0V21a1,1,0,0,1,1-1h1.5a2.5,2.5,0,0,1,0,5Z" style="fill:#364f6b"/><path d="M19.5,22H19v1h.5a.5.5,0,0,0,0-1Z" style="fill:#364f6b"/></g></svg>