<svg xmlns="http://www.w3.org/2000/svg" viewBox="0 0 32 32"><title>flask</title><g id="flask"><rect width="32" height="32" style="fill:none"/><path d="M6.2151,19.1328a7.86,7.86,0,0,1,2.6223,1.4985,2.3012,2.3012,0,0,0,1.1606.5967,2.1052,2.1052,0,0,0,1.1187-.5708,7.7519,7.7519,0,0,1,4.8726-1.8818,7.7628,7.7628,0,0,1,4.873,1.8794,2.2648,2.2648,0,0,0,1.1426.5737,2.1007,2.1007,0,0,0,1.12-.5713,8.0161,8.0161,0,0,1,2.6714-1.5178L20,15.4512V3a1,1,0,0,0,0-2H12a1,1,0,0,0,0,2V15.4512Z" style="fill:#364f6b"/><path d="M28.667,20.9829a1.0033,1.0033,0,0,0-.5606-.1831,5.2885,5.2885,0,0,0-3.7314,1.419c-1.5519,1.2421-2.9483,1.4465-4.7617-.0015a5.2725,5.2725,0,0,0-7.2476.0019,3.2944,3.2944,0,0,1-4.7446,0A5.1581,5.1581,0,0,0,3.894,20.8a.9985.9985,0,0,0-.5605.1831A5.5132,5.5132,0,0,0,6.52,31H25.4805A5.5134,5.5134,0,0,0,28.667,20.9829Z" style="fill:#364f6b"/></g></svg>