<svg xmlns="http://www.w3.org/2000/svg" viewBox="0 0 32 32"><title>handicap</title><g id="handicap"><rect width="32" height="32" style="fill:none"/><path d="M17.7471,20.3354A1,1,0,0,0,17,20H12V6a1,1,0,0,0-1-1H8A1,1,0,0,0,8,7h2v6.52A8.9977,8.9977,0,1,0,21.3926,25.252a1.0008,1.0008,0,0,0-.1856-1.0264Z" style="fill:#364f6b"/><path d="M27,23H25.7451l-6.0019-6.6689A.9991.9991,0,0,0,19,16H16V14h5a1,1,0,0,0,0-2H16V9a1,1,0,0,0-2,0v8a1,1,0,0,0,1,1h3.5547l6.0078,6.6753a.9938.9938,0,0,0,.74.3286c.0293,0,.0586-.0015.0879-.0039H27a1,1,0,0,0,0-2Z" style="fill:#364f6b"/><circle cx="16" cy="4" r="3" style="fill:#364f6b"/></g></svg>