<svg xmlns="http://www.w3.org/2000/svg" viewBox="0 0 32 32"><title>heart rate</title><g id="heart_rate" data-name="heart rate"><rect width="32" height="32" style="fill:none"/><path d="M18.8574,21.5146A.9994.9994,0,0,1,18,22c-.0264,0-.0532-.001-.08-.0034a1,1,0,0,1-.8486-.625L13.82,13.2432l-1.9629,3.2714A1,1,0,0,1,11,17H1.6419C3.12,21.7413,7.326,26.61,15.7305,28.9629a.9974.9974,0,0,0,.539,0C24.674,26.61,28.88,21.7413,30.3581,17H21.5664Z" style="fill:#364f6b"/><path d="M13.1426,10.4854a1,1,0,0,1,1.7861.143l3.251,8.1284,1.9629-3.2714A1,1,0,0,1,21,15h9.8308A13.3279,13.3279,0,0,0,31,13.0044C31.0257,7.25,27.3279,3,23,3a9.8135,9.8135,0,0,0-7,3.4619A9.8135,9.8135,0,0,0,9,3C4.65,3,.9744,7.28,1,13.0044A13.3279,13.3279,0,0,0,1.1692,15h9.2644Z" style="fill:#364f6b"/></g></svg>