<svg xmlns="http://www.w3.org/2000/svg" viewBox="0 0 32 32"><title>hiv ribbon</title><g id="hiv_ribbon" data-name="hiv ribbon"><rect width="32" height="32" style="fill:none"/><polygon points="20.847 1 11.153 1 15.999 6.288 20.847 1" style="fill:#364f6b"/><path d="M8.7371,1.3242a1,1,0,0,0-1.292-.1562l-6,4a1,1,0,0,0-.1821,1.5078l7.1919,7.8428,6.1878-6.75Z" style="fill:#364f6b"/><path d="M23.2629,30.6758a1,1,0,0,0,1.292.1562l6-4a1,1,0,0,0,.1821-1.5078l-7.1919-7.8428-6.1878,6.75Z" style="fill:#364f6b"/><path d="M30.555,5.168l-6-4a1,1,0,0,0-1.292.1562l-22,24A1,1,0,0,0,1.445,26.832l6,4a1,1,0,0,0,1.292-.1562l22-24A1,1,0,0,0,30.555,5.168Z" style="fill:#364f6b"/></g></svg>