<svg xmlns="http://www.w3.org/2000/svg" viewBox="0 0 32 32"><title>hospital</title><g id="hospital"><rect width="32" height="32" style="fill:none"/><path d="M30,6H23v5a3.0033,3.0033,0,0,1-3,3H12a3.0033,3.0033,0,0,1-3-3V6H2A1,1,0,0,0,2,8V28a2.002,2.002,0,0,0,2,2h9V25.1155a3.0765,3.0765,0,0,1,2.4021-3.0573A3.0048,3.0048,0,0,1,19,25v5h9a2.0023,2.0023,0,0,0,2-2V8a1,1,0,0,0,0-2ZM9,26H7V24H9Zm0-6H7V18H9Zm10,0H13V18h6Zm6,6H23V24h2Zm0-6H23V18h2Z" style="fill:#364f6b"/><path d="M12,12h8a1,1,0,0,0,1-1V3a1,1,0,0,0-1-1H12a1,1,0,0,0-1,1v8A1,1,0,0,0,12,12Zm2-6h1V5a1,1,0,0,1,2,0V6h1a1,1,0,0,1,0,2H17V9a1,1,0,0,1-2,0V8H14a1,1,0,0,1,0-2Z" style="fill:#364f6b"/></g></svg>