<svg xmlns="http://www.w3.org/2000/svg" viewBox="0 0 32 32"><title>infusion</title><g id="infusion"><rect width="32" height="32" style="fill:none"/><path d="M23,15a6.0066,6.0066,0,0,0-6,6v4a4,4,0,0,1-8,0V21a1,1,0,0,0,1-1V18.5777A5.004,5.004,0,0,0,13,14V11.6507a6.1866,6.1866,0,0,0-3.3711.4206,4.08,4.08,0,0,1-3.2578,0A6.1868,6.1868,0,0,0,3,11.6507V13.777a5.2632,5.2632,0,0,0,3,4.7724V20a1,1,0,0,0,1,1v4a6,6,0,0,0,12,0V21a4,4,0,0,1,8,0v9a1,1,0,0,0,2,0V21A6.0066,6.0066,0,0,0,23,15Z" style="fill:#364f6b"/><path d="M22,19.2783V30a1,1,0,0,0,2,0V19.2783a1.9358,1.9358,0,0,0-2,0Z" style="fill:#364f6b"/><path d="M7.1123,10.2139A2.37,2.37,0,0,0,8,10.4106a2.37,2.37,0,0,0,.8867-.1962A7.4988,7.4988,0,0,1,12,9.6c.2991,0,.6356.0165,1,.046V8a3.0033,3.0033,0,0,0-3-3H9V4a1.0009,1.0009,0,0,1,1-1H21a1.0009,1.0009,0,0,1,1,1v9.07a7.229,7.229,0,0,1,2,0V4a3.0033,3.0033,0,0,0-3-3H10A3.0033,3.0033,0,0,0,7,4V5H6A3.0033,3.0033,0,0,0,3,8V9.6461c.3644-.03.7009-.046,1-.046A7.4991,7.4991,0,0,1,7.1123,10.2139Z" style="fill:#364f6b"/></g></svg>