<svg xmlns="http://www.w3.org/2000/svg" viewBox="0 0 32 32"><title>kidney</title><g id="kidney"><rect width="32" height="32" style="fill:none"/><path d="M25,5a6.0066,6.0066,0,0,0-6,6,5.8971,5.8971,0,0,0,1,3.2792,7.4021,7.4021,0,0,0-4,2.7359A7.3989,7.3989,0,0,0,12,14.2792,5.8971,5.8971,0,0,0,13,11,6,6,0,0,0,1,11v8a6,6,0,0,0,12,0,5.91,5.91,0,0,0-.5225-2.3989,5.4425,5.4425,0,0,1,2.417,2.4233L15,19.2356V26a1,1,0,0,0,2,0V19.2358l.1055-.2109a5.4437,5.4437,0,0,1,2.417-2.4238A5.91,5.91,0,0,0,19,19a6,6,0,0,0,12,0V11A6.0066,6.0066,0,0,0,25,5Z" style="fill:#364f6b"/></g></svg>