<svg xmlns="http://www.w3.org/2000/svg" viewBox="0 0 32 32"><title>lungs</title><g id="lungs"><rect width="32" height="32" style="fill:none"/><path d="M24.2246,9.5483A4.16,4.16,0,0,0,18,13.1606v1.4253l-1-1V5a1,1,0,0,0-2,0v8.5859l-1,1V13.1606A4.1607,4.1607,0,0,0,7.7749,9.5483,13.4749,13.4749,0,0,0,1,21.2227V21.87a6.13,6.13,0,0,0,12.0244,1.6846,25.3361,25.3361,0,0,0,.9459-6.11l2.03-2.03,2.03,2.03a25.386,25.386,0,0,0,.9449,6.11A6.1307,6.1307,0,0,0,31,21.87v-.6469A13.4739,13.4739,0,0,0,24.2246,9.5483Z" style="fill:#364f6b"/></g></svg>