<svg xmlns="http://www.w3.org/2000/svg" viewBox="0 0 32 32"><title>medical bag</title><g id="medical_bag" data-name="medical bag"><rect width="32" height="32" style="fill:none"/><path d="M12,6a1.0009,1.0009,0,0,1,1-1h6a1.0009,1.0009,0,0,1,1,1V7h2V6a3.0033,3.0033,0,0,0-3-3H13a3.0033,3.0033,0,0,0-3,3V7h2Z" style="fill:#364f6b"/><path d="M28,9H4a3.0033,3.0033,0,0,0-3,3V26a3.0033,3.0033,0,0,0,3,3H28a3.0033,3.0033,0,0,0,3-3V12A3.0033,3.0033,0,0,0,28,9ZM21,21H18v3H14V21H11V17h3V14h4v3h3Z" style="fill:#364f6b"/></g></svg>