<svg xmlns="http://www.w3.org/2000/svg" viewBox="0 0 32 32"><title>microscope</title><g id="microscope"><rect width="32" height="32" style="fill:none"/><path d="M14,18a1,1,0,0,0-1-1H5a1,1,0,0,0,0,2h8A1,1,0,0,0,14,18Z" style="fill:#364f6b"/><path d="M27.8,29.4l-3-4A.9983.9983,0,0,0,24,25H22.6442a8.9817,8.9817,0,0,0-1.5389-14.9994L19.6,11.5061A6.9961,6.9961,0,1,1,10.685,21h-2.16a9.0528,9.0528,0,0,0,2.8406,4H10a.9983.9983,0,0,0-.8.4l-3,4A1.001,1.001,0,0,0,7,31H27A1.001,1.001,0,0,0,27.8,29.4Z" style="fill:#364f6b"/><rect x="9.7469" y="4.4751" width="13.5062" height="6.0498" rx="0.9999" ry="0.9999" transform="translate(-0.4706 13.864) rotate(-45)" style="fill:#364f6b"/></g></svg>