<svg xmlns="http://www.w3.org/2000/svg" viewBox="0 0 32 32"><title>mortar</title><g id="mortar"><rect width="32" height="32" style="fill:none"/><path d="M30,12.9828H2a1.0006,1.0006,0,0,0-1,1.0009,15.0924,15.0924,0,0,0,9,13.7441v.2693A3.0047,3.0047,0,0,0,13,31h6a3.0047,3.0047,0,0,0,3-3.0029v-.2693a15.0924,15.0924,0,0,0,9-13.7441A1.0006,1.0006,0,0,0,30,12.9828Z" style="fill:#364f6b"/><path d="M4.8789,6.0973v.0005a2.9761,2.9761,0,0,0,1.6467.8344,4.3021,4.3021,0,0,0,.89,3.5413l.4167.5094H21.537L13.4937,4.3911A4.3045,4.3045,0,0,0,9.9554,3.5,2.98,2.98,0,0,0,9.1216,1.851a3.07,3.07,0,0,0-4.2427,0,3.0032,3.0032,0,0,0,0,4.2468Z" style="fill:#364f6b"/></g></svg>