<svg xmlns="http://www.w3.org/2000/svg" viewBox="0 0 32 32"><title>petri dish</title><g id="petri_dish" data-name="petri dish"><rect width="32" height="32" style="fill:none"/><path d="M16,1A15,15,0,1,0,31,16,15.017,15.017,0,0,0,16,1ZM10.8076,13.833c.1734,1.5078.3887,3.3848-1.1006,4.874a1,1,0,0,1-1.414-1.414c.7519-.752.7011-1.7227.5278-3.232a6.062,6.062,0,0,1,.2847-3.5083,1,1,0,1,1,1.789.8946A4.6488,4.6488,0,0,0,10.8076,13.833Zm1.4854-8.54a.9994.9994,0,0,1,1.414,0A3.8433,3.8433,0,0,0,17,6.5a5.7838,5.7838,0,0,1,4.707,1.793,1,1,0,0,1-1.414,1.414A3.8438,3.8438,0,0,0,17,8.5a5.7843,5.7843,0,0,1-4.707-1.793A.9994.9994,0,0,1,12.293,5.293ZM14,25a1,1,0,1,1,1-1A1,1,0,0,1,14,25Zm2-12a1,1,0,1,1,1-1A1,1,0,0,1,16,13Zm4,14a1,1,0,0,1-1-1,6.4043,6.4043,0,0,0-.8945-2.5527A7.8714,7.8714,0,0,1,17,20a1,1,0,0,1,2,0,6.4043,6.4043,0,0,0,.8945,2.5527A7.8714,7.8714,0,0,1,21,26,1,1,0,0,1,20,27Zm3-8a3,3,0,1,1,3-3A3.0033,3.0033,0,0,1,23,19Z" style="fill:#364f6b"/></g></svg>