<svg xmlns="http://www.w3.org/2000/svg" viewBox="0 0 32 32"><title>pills</title><g id="pills"><rect width="32" height="32" style="fill:none"/><path d="M9.2694,6.42a4.8449,4.8449,0,0,0-6.8527,6.8507l5.4384,5.4367a1,1,0,0,0,1.4143,0l5.4374-5.4367a.9994.9994,0,0,0,0-1.414Z" style="fill:#364f6b"/><path d="M14,18.0005a1,1,0,0,0-1,1v1a1,1,0,0,0,2,0V19A1,1,0,0,0,14,18.0005Z" style="fill:#364f6b"/><path d="M14,24a1,1,0,0,0-1,1v1a1,1,0,0,0,2,0V25A1,1,0,0,0,14,24Z" style="fill:#364f6b"/><path d="M10.9992,21a1,1,0,0,0-1,1v1a1,1,0,0,0,2,0V22A1,1,0,0,0,10.9992,21Z" style="fill:#364f6b"/><path d="M29.5833,6.42a4.8435,4.8435,0,0,0-6.8527,0l-5.4374,5.4367a.9994.9994,0,0,0,0,1.414l5.4374,5.4367a1,1,0,0,0,1.4143,0l5.4384-5.4367A4.8494,4.8494,0,0,0,29.5833,6.42Z" style="fill:#364f6b"/><path d="M18,18.0005a1,1,0,0,0-1,1v1a1,1,0,0,0,2,0V19A1,1,0,0,0,18,18.0005Z" style="fill:#364f6b"/><path d="M18,24a1,1,0,0,0-1,1v1a1,1,0,0,0,2,0V25A1,1,0,0,0,18,24Z" style="fill:#364f6b"/><path d="M21.0008,21a1,1,0,0,0-1,1v1a1,1,0,0,0,2,0V22A1,1,0,0,0,21.0008,21Z" style="fill:#364f6b"/></g></svg>