<svg xmlns="http://www.w3.org/2000/svg" viewBox="0 0 32 32"><title>potion</title><g id="potion"><rect width="32" height="32" style="fill:none"/><path d="M22.1514,21.8574a4.9339,4.9339,0,0,0-5.6387,0,6.9138,6.9138,0,0,1-7.6953,0,4.8364,4.8364,0,0,0-2.8161-.8318,9.9981,9.9981,0,0,0,19.7929,1.9823A6.4414,6.4414,0,0,1,22.1514,21.8574Z" style="fill:#364f6b"/><path d="M15.4834,20.1426a6.9169,6.9169,0,0,1,7.6973,0,4.8381,4.8381,0,0,0,2.8177.8321A9.9249,9.9249,0,0,0,21,12.3516V3a1,1,0,0,0,0-2H11a1,1,0,0,0,0,2v9.3516a9.8876,9.8876,0,0,0-4.77,6.64,6.4238,6.4238,0,0,1,3.6163,1.1513A4.9289,4.9289,0,0,0,15.4834,20.1426Z" style="fill:#364f6b"/></g></svg>