<svg xmlns="http://www.w3.org/2000/svg" viewBox="0 0 32 32"><title>skull</title><g id="skull"><rect width="32" height="32" style="fill:none"/><path d="M20,1H12A11.0125,11.0125,0,0,0,1,12v8a4.0042,4.0042,0,0,0,4,4,1.0009,1.0009,0,0,1,1,1v2a4.0042,4.0042,0,0,0,4,4h1V26a1,1,0,0,1,2,0v5h2V26a1,1,0,0,1,2,0v5h2V26a1,1,0,0,1,2,0v5h1a4.0042,4.0042,0,0,0,4-4V25a1.0009,1.0009,0,0,1,1-1,4.0042,4.0042,0,0,0,4-4V12A11.0125,11.0125,0,0,0,20,1ZM10,15a4,4,0,1,1,4-4A4.0042,4.0042,0,0,1,10,15Zm7.7324,8H14.2676a1.9988,1.9988,0,0,1-1.73-3.001L14.2676,17a2,2,0,0,1,3.4648,0l1.7315,3A1.9991,1.9991,0,0,1,17.7324,23ZM22,15a4,4,0,1,1,4-4A4.0042,4.0042,0,0,1,22,15Z" style="fill:#364f6b"/></g></svg>