<svg xmlns="http://www.w3.org/2000/svg" viewBox="0 0 32 32"><title>sperm</title><g id="sperm"><rect width="32" height="32" style="fill:none"/><path d="M2,6.7c3.7114,0,3.774-1.4,7-1.4,3.0989,0,3.2727,1.2839,6.55,1.3914A6.5788,6.5788,0,0,0,21,9c3.3643,0,6-1.7568,6-4s-2.6357-4-6-4c-3.1857,0-5.7144,1.5762-5.9742,3.648C12.6855,4.3965,12.3029,3.3,9,3.3c-3.7114,0-3.774,1.4-7,1.4a1,1,0,0,0,0,2Z" style="fill:#364f6b"/><path d="M25,12c-3.1882,0-5.718,1.5786-5.9745,3.6528C16.7208,15.4086,16.3073,14.3,13,14.3c-3.7114,0-3.774,1.4-7,1.4a1,1,0,0,0,0,2c3.7114,0,3.774-1.4,7-1.4,3.0876,0,3.2454,1.2683,6.5479,1.3888A6.5767,6.5767,0,0,0,25,20c3.3643,0,6-1.7568,6-4S28.3643,12,25,12Z" style="fill:#364f6b"/><path d="M21,23c-3.1862,0-5.715,1.5765-5.9742,3.6489C12.6923,26.3989,12.3058,25.3,9,25.3c-3.7114,0-3.774,1.4-7,1.4a1,1,0,0,0,0,2c3.7114,0,3.774-1.4,7-1.4,3.0975,0,3.28,1.286,6.55,1.3917A6.5792,6.5792,0,0,0,21,31c3.3643,0,6-1.7568,6-4S24.3643,23,21,23Z" style="fill:#364f6b"/></g></svg>