<svg xmlns="http://www.w3.org/2000/svg" viewBox="0 0 32 32"><title>stethoscope</title><g id="stethoscope"><rect width="32" height="32" style="fill:none"/><path d="M27,13.5v9.6011a4.9969,4.9969,0,0,1,2,0V13.5a4.5,4.5,0,0,0-9,0V24a5,5,0,0,1-10,0v-5.07A8.007,8.007,0,0,0,17,11V2a1,1,0,0,0-1-1H15a1,1,0,0,0,0,2v8A6,6,0,0,1,3,11V3A1,1,0,0,0,3,1H2A1,1,0,0,0,1,2v9a8.007,8.007,0,0,0,7,7.93V24a7,7,0,0,0,14,0V13.5a2.5,2.5,0,0,1,5,0Z" style="fill:#364f6b"/><circle cx="28" cy="28" r="3" style="fill:#364f6b"/></g></svg>