<svg xmlns="http://www.w3.org/2000/svg" viewBox="0 0 32 32"><title>tooth</title><g id="tooth"><rect width="32" height="32" style="fill:none"/><path d="M28.8369,5.4375A7.9839,7.9839,0,0,0,21.6567,1a4.9662,4.9662,0,0,0-3.5351,1.4644,3.0037,3.0037,0,0,1-4.2432,0A4.9662,4.9662,0,0,0,10.3433,1a7.9839,7.9839,0,0,0-7.18,4.4375,10.7148,10.7148,0,0,0-.2085,9.1733A30.675,30.675,0,0,1,5.479,24.3164L5.7764,27.59a3.75,3.75,0,0,0,7.4663.0332l.6035-6.0351a2.1646,2.1646,0,0,1,4.3076,0l.6035,6.0351a3.75,3.75,0,0,0,7.4663-.0336l.2974-3.273a30.675,30.675,0,0,1,2.5244-9.7056A10.7148,10.7148,0,0,0,28.8369,5.4375Z" style="fill:#364f6b"/></g></svg>