<svg xmlns="http://www.w3.org/2000/svg" viewBox="0 0 32 32"><title>vaccine</title><g id="vaccine"><rect width="32" height="32" style="fill:none"/><path d="M30.707,7.293l-6-6a1,1,0,0,0-1.414,1.414l1,1L21.707,6.293l-1-1a1,1,0,0,0-1.414,0L14.5859,10,22,17.4141l4.707-4.7071a1,1,0,0,0,0-1.414l-1-1,2.586-2.586,1,1a1,1,0,0,0,1.414-1.414Z" style="fill:#364f6b"/><path d="M6.7031,17.8828a2.99,2.99,0,0,0-.1053,4.1054L5.293,23.293a.9994.9994,0,0,0,0,1.414L5.5859,25,1.293,29.293a1,1,0,0,0,1.414,1.414L7,26.4141l.293.2929a.9994.9994,0,0,0,1.414,0l1.3048-1.3048a2.99,2.99,0,0,0,4.1054-.1053l6.4685-6.4685-7.4141-7.4141Z" style="fill:#364f6b"/></g></svg>