<svg xmlns="http://www.w3.org/2000/svg" viewBox="0 0 32 32"><title>virus</title><g id="virus"><rect width="32" height="32" style="fill:none"/><circle cx="16" cy="16" r="5" style="fill:#364f6b"/><path d="M9.6387,20.9473l-.8486.8485a3.0749,3.0749,0,0,0-3.3965.568v0H5.3931a3,3,0,1,0,4.82.8363l.8393-.8393a1,1,0,1,0-1.414-1.414Z" style="fill:#364f6b"/><path d="M22.3613,11.0527l.84-.84a2.9945,2.9945,0,1,0-.8372-4.82v.0005a2.9883,2.9883,0,0,0-.5776,3.4056l-.8394.8395a1,1,0,1,0,1.414,1.414Z" style="fill:#364f6b"/><path d="M6.8157,17H8a1,1,0,0,0,0-2H6.8157a3,3,0,1,0,0,2Z" style="fill:#364f6b"/><path d="M28,13a2.995,2.995,0,0,0-2.8157,2H24a1,1,0,0,0,0,2h1.1843A2.9947,2.9947,0,1,0,28,13Z" style="fill:#364f6b"/><path d="M8.7993,10.2134l.8394.8393a1,1,0,1,0,1.414-1.414l-.8394-.8394a2.9884,2.9884,0,0,0-.5771-3.4057H9.6357V5.3931a3.0724,3.0724,0,0,0-4.2421,0,2.9931,2.9931,0,0,0,3.4057,4.82Z" style="fill:#364f6b"/><path d="M26.6064,22.3638a2.9957,2.9957,0,0,0-3.4049-.5763l-.84-.84a1,1,0,0,0-1.414,1.414l.84.84a2.9949,2.9949,0,1,0,4.82-.8366Z" style="fill:#364f6b"/><path d="M15,6.8157V8a1,1,0,0,0,2,0V6.8157a3,3,0,1,0-2,0Z" style="fill:#364f6b"/><path d="M17,25.1843V24a1,1,0,0,0-2,0v1.1843a3,3,0,1,0,2,0Z" style="fill:#364f6b"/></g></svg>