<svg xmlns="http://www.w3.org/2000/svg" viewBox="0 0 32 32"><title>wheelchair</title><g id="wheelchair"><rect width="32" height="32" style="fill:none"/><path d="M27,27H25.5889L20.874,18.5142A.9989.9989,0,0,0,20,18H15V14h4a1,1,0,0,0,0-2H15V8.858a4,4,0,1,0-2,0V19a1,1,0,0,0,1,1h5.4111l4.7149,8.4858A.9989.9989,0,0,0,25,29h2a1,1,0,0,0,0-2Z" style="fill:#364f6b"/><path d="M19.5654,26.7476a8.0009,8.0009,0,1,1-9.12-12.9165A1,1,0,0,0,9.5547,12.04,10.001,10.001,0,1,0,20.9561,28.1841a1,1,0,1,0-1.3907-1.4365Z" style="fill:#364f6b"/></g></svg>