<svg xmlns="http://www.w3.org/2000/svg" viewBox="0 0 32 32"><title>x ray</title><g id="x_ray" data-name="x ray"><rect width="32" height="32" style="fill:none"/><path d="M28,1H4A3.0033,3.0033,0,0,0,1,4V28a3.0033,3.0033,0,0,0,3,3H28a3.0033,3.0033,0,0,0,3-3V4A3.0033,3.0033,0,0,0,28,1ZM23.9111,25.1152A4.9775,4.9775,0,0,1,20,27H12a4.9775,4.9775,0,0,1-3.9111-1.8848,5.03,5.03,0,0,1-.9561-4.2807A4.99,4.99,0,0,1,15,18.0093V16H13a1,1,0,0,1,0-2h2V12H13a1,1,0,0,1,0-2h2V8H13a1,1,0,0,1,0-2h2a1,1,0,0,1,2,0h2a1,1,0,0,1,0,2H17v2h2a1,1,0,0,1,0,2H17v2h2a1,1,0,0,1,0,2H17v2.0092a4.9994,4.9994,0,0,1,4.165-.8769,4.9486,4.9486,0,0,1,3.7022,3.7022A5.03,5.03,0,0,1,23.9111,25.1152Z" style="fill:#364f6b"/><circle cx="20" cy="22" r="1" style="fill:#364f6b"/><circle cx="12" cy="22" r="1" style="fill:#364f6b"/></g></svg>